<?xml version="1.0" standalone="no"?>
<!DOCTYPE svg PUBLIC "-//W3C//DTD SVG 20010904//EN"
 "http://www.w3.org/TR/2001/REC-SVG-20010904/DTD/svg10.dtd">
<svg version="1.0" xmlns="http://www.w3.org/2000/svg"
 width="1080.000000pt" height="1080.000000pt" viewBox="0 0 1080.000000 1080.000000"
 preserveAspectRatio="xMidYMid meet">

<g transform="translate(0.000000,1080.000000) scale(0.100000,-0.100000)"
fill="#000000" stroke="none">
<path d="M0 5400 l0 -5400 5400 0 5400 0 0 5400 0 5400 -5400 0 -5400 0 0
-5400z m1640 1680 c-12 -8 -10 -10 8 -10 13 0 20 4 17 10 -3 6 5 10 19 10 20
0 24 -4 19 -17 -5 -17 -5 -17 8 -1 12 14 33 16 144 14 72 -1 141 -6 155 -10
19 -5 20 -4 5 2 -15 7 -10 9 23 9 28 0 39 -3 30 -8 -9 -6 -9 -9 -1 -9 6 0 15
5 18 11 8 13 117 8 128 -6 6 -7 10 -6 13 1 7 16 124 -9 124 -27 0 -5 6 -6 14
-3 8 3 17 0 21 -5 3 -6 10 -9 15 -6 4 3 11 -2 14 -11 3 -8 2 -12 -4 -9 -6 3
-7 -1 -4 -10 6 -14 8 -14 20 2 12 17 16 14 59 -32 25 -27 49 -62 52 -77 3 -16
10 -31 14 -34 5 -3 9 -10 9 -16 0 -7 -6 -6 -15 2 -8 7 -15 8 -15 4 0 -5 9 -15
20 -22 12 -7 20 -18 18 -25 -1 -7 1 -25 5 -40 5 -18 3 -34 -4 -43 -8 -10 -8
-14 0 -14 6 0 11 -17 11 -41 0 -22 -4 -38 -8 -35 -4 2 -8 -4 -8 -14 0 -10 4
-16 8 -14 4 3 8 -2 8 -11 0 -9 -4 -13 -10 -10 -5 3 -10 1 -10 -4 0 -6 6 -11
13 -11 8 0 7 -4 -3 -10 -10 -6 -11 -10 -2 -10 6 0 12 -5 12 -11 0 -5 -4 -7
-10 -4 -5 3 -10 1 -10 -4 0 -6 5 -11 10 -11 6 0 10 -5 10 -11 0 -5 -4 -7 -10
-4 -5 3 -10 1 -10 -4 0 -6 5 -11 10 -11 6 0 10 -9 10 -21 0 -13 -4 -18 -12
-13 -10 6 -10 5 -2 -7 7 -8 12 -56 13 -119 0 -69 -3 -100 -9 -90 -6 9 -10 10
-10 3 0 -6 5 -15 10 -18 6 -3 10 -11 10 -16 0 -6 -6 -7 -12 -3 -10 6 -10 4 -2
-7 17 -21 18 -449 1 -449 -8 0 -7 -4 3 -10 13 -9 13 -11 0 -20 -9 -6 -10 -10
-3 -10 8 0 11 -40 11 -142 0 -79 -2 -137 -5 -130 -3 6 -9 10 -14 6 -5 -3 -12
2 -15 10 -3 9 -10 13 -15 10 -5 -3 -9 0 -9 6 0 6 -5 8 -12 4 -9 -5 -9 -2 1 9
8 10 9 17 3 17 -6 0 -14 -4 -17 -10 -4 -6 -15 -4 -30 6 -14 9 -22 20 -19 26 3
5 0 8 -7 7 -8 -1 -26 4 -41 11 -22 10 -25 16 -17 27 8 9 8 13 1 13 -6 0 -14
-5 -18 -11 -5 -8 -13 -4 -26 12 -11 13 -16 18 -12 10 5 -10 3 -12 -5 -7 -8 5
-11 22 -8 43 3 19 2 32 -1 29 -3 -3 -11 -1 -19 6 -7 6 -16 8 -20 5 -3 -4 -12
-2 -20 5 -9 7 -17 8 -24 1 -6 -6 -2 -16 13 -29 l23 -19 -19 23 c-11 12 -15 22
-9 22 15 0 44 -36 36 -44 -5 -4 -2 -6 6 -4 7 2 16 -3 18 -10 5 -14 -19 -3 -82
38 -16 11 -40 24 -52 30 -13 5 -23 12 -23 15 0 4 4 4 9 1 11 -7 8 21 -4 31 -4
5 -5 2 0 -6 6 -11 4 -13 -9 -8 -11 5 -15 3 -10 -5 9 -15 -14 -1 -44 26 -13 12
-26 19 -29 16 -3 -3 -11 3 -17 12 -8 13 -8 23 2 38 14 23 16 42 2 20 -7 -10
-9 39 -9 150 1 109 5 167 13 172 8 6 7 8 -1 8 -18 0 -18 346 0 354 9 5 9 7 0
12 -7 3 -10 11 -7 19 3 8 -6 33 -20 58 -14 24 -24 47 -21 50 3 4 2 5 -1 2 -4
-2 -19 4 -34 15 -15 11 -31 16 -35 12 -5 -4 -5 1 -2 10 3 10 -1 22 -11 30 -15
11 -15 11 -5 -3 7 -9 10 -19 6 -22 -12 -12 -23 -7 -23 10 0 14 -3 13 -20 -5
-12 -12 -26 -22 -32 -22 -6 0 -3 9 7 20 10 11 15 20 12 20 -4 0 -10 0 -14 0
-5 0 -8 -3 -8 -7 -1 -12 -24 -49 -25 -39 0 6 -7 1 -16 -10 -8 -10 -13 -14 -10
-7 4 6 3 14 -2 17 -4 2 -9 -7 -10 -22 -1 -15 -7 -29 -12 -30 -6 -2 -7 -8 -4
-13 3 -6 -2 -20 -13 -31 -10 -12 -13 -18 -6 -15 8 5 11 -82 11 -352 -1 -198
-4 -360 -7 -359 -21 2 -41 -3 -41 -12 0 -12 22 -9 31 4 9 11 32 -31 24 -44 -3
-6 -2 -10 3 -10 5 0 8 -20 7 -45 -3 -44 7 -66 20 -45 4 6 12 7 18 3 8 -5 8 -2
0 9 -7 8 -10 18 -6 22 4 4 1 5 -7 3 -8 -2 -11 -2 -7 1 4 2 3 11 -4 20 -6 10 2
3 18 -14 16 -17 37 -34 47 -37 10 -4 14 -12 10 -18 -4 -8 -3 -9 4 -5 22 13 34
-5 15 -21 -16 -13 -16 -13 5 -3 34 16 41 2 12 -21 -21 -17 -22 -19 -3 -10 30
15 42 13 20 -3 -17 -13 -16 -14 7 -12 20 1 22 4 15 19 -7 13 -6 17 6 17 9 0
14 -4 11 -9 -6 -9 19 -24 44 -26 8 0 14 -7 12 -14 -1 -7 2 -10 7 -6 11 6 51
-15 51 -28 0 -4 -6 -5 -12 -1 -10 6 -10 4 0 -8 10 -13 10 -17 0 -21 -7 -2 -1
-4 15 -4 15 0 30 3 33 8 3 5 -1 6 -9 3 -18 -6 -32 12 -17 21 5 3 10 1 10 -5 0
-6 4 -9 9 -6 5 4 23 -5 40 -19 16 -15 34 -26 38 -27 16 -2 53 -21 53 -28 0 -4
-10 -12 -22 -17 -22 -10 -22 -11 4 -9 14 0 26 3 25 6 -5 14 23 6 68 -20 28
-16 48 -30 45 -31 -3 0 -14 -2 -24 -4 -10 -2 -26 -12 -35 -21 -15 -17 -15 -17
1 -5 21 15 72 25 64 12 -4 -5 -1 -13 5 -17 8 -4 9 -3 5 4 -12 20 13 13 34 -8
12 -12 18 -25 15 -29 -6 -11 14 -9 32 2 9 5 17 -1 24 -17 7 -14 15 -23 19 -21
4 3 14 -3 21 -12 8 -9 9 -14 3 -10 -6 3 -11 1 -11 -6 0 -7 -4 -21 -8 -32 -6
-17 -5 -18 5 -5 10 13 11 12 7 -5 -3 -16 1 -21 17 -23 15 -1 17 1 7 7 -9 6
-10 11 -2 15 6 4 15 4 21 1 15 -9 30 -77 24 -108 -3 -17 -1 -26 5 -23 13 9 9
-187 -4 -196 -7 -5 -7 -8 0 -8 16 0 18 -222 2 -232 -9 -6 -9 -8 0 -8 15 0 15
-258 0 -277 -5 -7 -5 -13 0 -13 5 0 10 -20 11 -45 1 -30 -3 -45 -11 -45 -8 0
-9 -2 -1 -8 13 -8 14 -165 2 -178 -4 -4 -3 -13 2 -19 15 -18 1 -75 -19 -76
-12 0 -11 -2 4 -9 19 -9 19 -9 -2 -16 -13 -3 -23 -10 -23 -15 0 -5 8 -5 18 -2
15 6 15 5 3 -10 -7 -9 -10 -17 -6 -17 4 0 2 -7 -5 -15 -12 -14 -15 -14 -30 0
-15 14 -18 14 -23 1 -4 -10 -1 -13 8 -10 10 4 12 -1 9 -18 -2 -13 -2 -17 2
-10 3 6 11 12 17 12 6 0 3 -8 -6 -17 -16 -16 -19 -16 -27 -3 -5 8 -10 10 -10
5 0 -6 6 -17 13 -24 10 -11 7 -13 -18 -8 -16 4 -24 4 -17 1 6 -3 9 -11 6 -16
-4 -7 -2 -8 4 -4 24 15 11 -3 -16 -23 -34 -24 -136 -65 -127 -52 3 5 0 13 -6
17 -7 4 -9 3 -6 -3 7 -12 -15 -35 -29 -31 -5 1 -31 -2 -58 -6 -37 -6 -51 -4
-57 6 -7 10 -9 10 -9 0 0 -9 -71 -11 -332 -9 -332 4 -398 11 -398 40 0 8 -3 8
-8 -1 -7 -10 -14 -8 -34 8 -15 11 -31 20 -36 20 -6 0 -23 15 -37 33 -15 17
-24 26 -20 20 3 -7 4 -13 1 -13 -3 0 -12 14 -21 30 -9 17 -12 30 -8 30 4 0 -2
6 -13 14 -10 8 -16 18 -12 21 4 4 3 16 -3 27 -11 20 -17 44 -24 91 -2 18 1 27
11 27 8 0 14 6 14 13 0 8 4 7 11 -3 9 -12 10 -12 5 3 -3 10 -7 35 -8 55 -1 36
-1 36 -7 -7 -3 -25 -12 -46 -19 -49 -9 -3 -12 123 -12 608 l0 611 31 -5 c17
-2 36 -12 43 -22 7 -9 18 -14 23 -11 6 4 27 -4 47 -18 20 -14 40 -25 44 -25 5
0 14 -6 21 -12 6 -7 15 -13 19 -14 16 -1 62 -28 62 -36 0 -4 3 -7 8 -6 4 1 40
-16 79 -38 59 -33 70 -43 60 -53 -10 -11 -8 -11 9 -3 22 12 34 7 50 -22 6 -11
17 -21 25 -24 9 -2 8 1 -3 11 -10 8 -18 18 -18 22 0 5 9 0 20 -10 11 -10 20
-28 20 -39 0 -17 -2 -18 -10 -6 -6 9 -10 10 -10 3 0 -6 4 -14 9 -17 13 -9 11
-519 -3 -529 -8 -6 -8 -10 2 -14 6 -2 12 -11 12 -19 0 -8 -6 -14 -12 -15 -10
0 -10 -2 0 -6 6 -2 12 -13 12 -24 0 -10 -6 -19 -12 -20 -10 0 -10 -2 0 -6 6
-2 12 -11 12 -19 0 -8 -6 -14 -12 -15 -10 0 -10 -2 0 -6 6 -2 12 -16 12 -31 0
-25 0 -25 -16 -6 -9 10 -6 3 5 -17 12 -20 21 -43 21 -51 0 -8 18 -25 39 -38
21 -14 37 -28 35 -32 -2 -4 0 -10 6 -13 6 -4 9 -3 8 2 -3 8 5 13 23 13 5 0 7
-4 4 -10 -9 -14 7 -12 29 5 14 11 22 11 36 2 10 -6 17 -15 14 -19 -3 -4 3 -5
12 -1 12 4 15 3 10 -5 -5 -8 -1 -10 10 -5 15 5 12 9 -13 21 l-30 14 38 35 c23
21 39 44 39 57 0 13 2 25 5 28 3 3 6 144 7 314 0 301 4 335 33 356 6 5 5 8 -3
8 -7 0 -17 -10 -23 -22 -8 -20 -9 -19 -5 8 3 17 1 35 -4 40 -4 5 -10 18 -12
29 -1 11 -9 26 -15 33 -24 25 -13 36 12 12 14 -13 25 -21 25 -17 0 14 -43 45
-55 40 -8 -2 -21 7 -30 20 -9 14 -25 27 -35 30 -11 3 -24 17 -30 31 -5 14 -15
26 -21 26 -8 0 -7 -5 2 -17 13 -15 12 -15 -8 -5 -12 7 -25 17 -28 22 -4 6 -11
8 -16 5 -5 -4 -21 7 -36 22 -14 15 -23 22 -19 15 10 -17 -96 48 -107 65 -5 7
-12 11 -17 8 -14 -8 -49 17 -43 31 2 6 0 15 -6 19 -7 3 -8 0 -5 -9 8 -20 -6
-20 -31 -2 -16 12 -17 16 -6 29 11 14 9 15 -16 8 -33 -9 -56 -4 -47 11 4 7 2
8 -4 4 -15 -9 -130 61 -150 91 -8 13 -17 21 -20 19 -7 -8 -72 76 -66 86 3 4
-4 25 -15 46 -19 38 -20 61 -21 586 0 357 3 546 10 546 6 0 6 9 0 25 -6 16 -6
26 1 31 6 3 8 12 5 20 -7 18 23 96 34 89 5 -3 12 0 16 6 4 8 3 9 -4 5 -7 -4
-12 -1 -12 9 0 10 5 13 12 9 7 -4 8 -3 4 5 -4 6 5 24 21 41 32 35 93 74 93 60
0 -5 -8 -14 -19 -19 -10 -6 -21 -19 -24 -30 -4 -17 -2 -18 14 -8 11 7 14 14 8
16 -6 2 -1 10 10 18 12 8 21 21 21 29 0 13 13 19 34 15 4 -1 14 3 22 10 7 6
29 11 47 11 19 0 40 3 47 8 7 4 33 8 59 8 33 1 42 -1 31 -8z m1070 0 c-8 -5
-10 -10 -4 -10 6 0 14 3 18 8 11 10 106 9 106 -2 0 -5 6 -4 13 1 6 5 90 10
186 11 154 2 176 0 188 -16 14 -16 14 -16 9 0 -5 16 2 18 64 15 39 -1 70 -5
70 -9 0 -5 -5 -8 -12 -8 -6 0 -8 -3 -5 -7 4 -3 15 0 24 8 14 11 62 14 228 14
l210 0 2 -192 c2 -162 0 -193 -13 -193 -8 0 -14 -4 -14 -10 0 -6 -52 -10 -137
-9 -85 1 -128 4 -113 9 l25 8 -27 1 c-15 1 -30 -3 -33 -9 -8 -12 -225 -12
-225 0 0 5 -7 7 -15 4 -9 -4 -15 -18 -14 -33 l1 -26 8 25 c6 18 8 9 8 -35 0
-34 -5 -63 -12 -67 -8 -6 -7 -8 2 -8 17 0 15 -521 -2 -532 -8 -6 -7 -8 2 -8 8
0 12 -17 12 -50 0 -33 -4 -50 -12 -51 -10 0 -10 -2 0 -6 6 -2 12 -13 12 -24 0
-10 -6 -19 -12 -19 -10 0 -10 -2 0 -9 10 -6 12 -38 10 -134 -3 -113 -1 -126
16 -137 11 -7 16 -8 11 -1 -4 8 72 11 259 10 l266 -1 0 -26 c0 -16 -8 -32 -20
-40 -11 -7 -20 -18 -20 -25 0 -6 5 -4 11 6 20 34 29 16 28 -60 0 -53 -3 -72
-9 -58 -8 19 -9 19 -9 -2 -1 -13 4 -23 9 -23 6 0 10 -28 10 -65 0 -45 -4 -65
-12 -65 -9 0 -8 -4 2 -10 10 -6 -78 -9 -255 -8 -148 0 -250 4 -225 8 l45 7
-38 1 c-76 4 -72 27 -70 -409 2 -278 -1 -389 -8 -389 -8 0 -8 -4 0 -14 8 -10
11 -59 10 -153 l-1 -138 73 -3 c40 -2 78 -7 85 -13 8 -7 14 -6 17 3 4 10 8 10
17 -2 9 -11 13 -12 17 -2 7 17 133 17 133 0 0 -9 3 -10 8 -2 9 14 164 13 175
-1 4 -6 10 -5 17 5 6 10 9 -55 9 -192 0 -120 -5 -208 -10 -208 -5 0 -9 6 -9
13 0 9 -2 9 -9 -1 -11 -17 -21 -17 -32 0 -7 10 -9 10 -9 1 0 -10 -26 -13 -95
-13 -69 0 -95 3 -96 13 0 9 -2 9 -6 0 -7 -19 -40 -16 -53 5 -9 13 -10 13 -7 1
4 -12 -3 -16 -34 -17 -24 -1 -39 3 -39 10 0 9 -3 9 -12 0 -15 -15 -188 -17
-188 -2 0 7 -6 7 -18 1 -10 -6 -133 -10 -285 -11 -229 0 -267 2 -267 14 0 8 4
17 9 20 4 3 14 26 21 51 7 24 15 43 19 41 6 -4 8 16 10 112 1 23 5 42 9 42 9
0 7 2799 -3 2825 -5 16 -5 17 4 5 6 -8 11 -10 11 -4 0 5 -6 16 -12 23 -10 11
-10 14 0 18 6 3 12 9 12 14 0 6 -4 8 -9 5 -10 -7 -25 60 -16 74 3 6 1 10 -5
10 -7 0 -10 7 -6 15 3 8 1 15 -5 15 -6 0 -7 5 -3 11 3 6 3 14 -2 18 -12 8 -34
48 -34 61 0 5 19 10 43 10 31 0 38 -3 27 -10z m1312 -5 c5 -7 8 -7 8 0 0 6 48
11 120 12 72 1 120 -2 120 -7 0 -6 -6 -10 -14 -10 -20 0 -29 -17 -14 -26 7 -4
10 -4 6 1 -5 5 11 17 33 27 47 21 52 22 44 8 -3 -5 1 -10 9 -10 9 0 16 5 16
10 0 6 5 10 11 10 5 0 7 -5 3 -12 -5 -7 -3 -8 7 -2 21 13 151 15 143 2 -5 -7
-2 -8 7 -3 7 5 91 10 187 12 137 2 172 1 166 -9 -5 -9 -2 -8 9 1 15 12 19 12
31 -5 8 -10 18 -16 22 -11 4 4 2 7 -4 7 -7 0 -12 5 -12 11 0 7 9 9 23 5 20 -7
58 -12 100 -15 9 0 17 -9 17 -18 0 -16 2 -16 11 -3 8 11 12 12 16 2 2 -6 8
-10 13 -7 5 3 14 -1 22 -8 7 -7 18 -14 23 -16 6 -1 9 -9 9 -17 -2 -12 1 -12
14 -2 13 11 15 10 10 -3 -4 -11 4 -26 23 -43 26 -24 42 -55 20 -42 -5 3 -12
-1 -15 -9 -4 -13 -2 -13 14 -5 12 6 21 7 25 0 3 -5 13 -6 22 -3 11 4 14 3 9
-5 -4 -7 -2 -12 4 -12 6 0 9 -4 5 -9 -3 -5 -1 -12 5 -16 6 -3 8 -17 6 -31 -3
-14 -1 -22 5 -19 5 4 9 -3 9 -14 0 -12 -5 -21 -11 -21 -5 0 -7 -5 -4 -10 4 -6
10 -8 14 -6 12 8 8 -198 -4 -206 -6 -5 -5 -8 3 -8 6 0 12 -7 12 -16 0 -11 -6
-14 -22 -10 l-23 6 23 -11 c21 -12 22 -16 22 -166 0 -115 -3 -153 -12 -154
-10 0 -10 -2 0 -6 6 -2 11 -19 11 -36 l-1 -32 -8 30 -8 30 -1 -32 c0 -17 4
-35 9 -38 6 -3 10 -13 10 -21 0 -8 -4 -12 -10 -9 -5 3 -10 2 -10 -4 0 -5 5
-13 11 -16 6 -4 9 -36 8 -75 -2 -66 -3 -69 -23 -59 -20 9 -20 9 2 -10 12 -10
22 -27 22 -38 0 -15 -2 -16 -10 -3 -8 13 -10 12 -10 -2 0 -10 4 -18 8 -18 5 0
9 -22 9 -50 1 -27 -2 -50 -7 -50 -4 0 -5 -11 -2 -25 3 -17 -1 -27 -12 -31 -9
-3 -16 -10 -16 -16 0 -5 5 -6 10 -3 6 3 10 1 10 -4 0 -6 -4 -11 -10 -11 -5 0
-7 -6 -4 -13 2 -7 -4 -21 -15 -31 -11 -10 -18 -24 -14 -30 4 -6 -2 -4 -12 4
-17 14 -18 14 -7 -6 9 -17 7 -22 -11 -33 -18 -11 -20 -11 -9 0 6 7 12 18 12
24 -1 12 -23 -25 -26 -43 -1 -7 -15 -23 -30 -35 -29 -22 -58 -32 -48 -16 3 5
9 7 14 4 4 -3 10 2 14 10 3 8 0 17 -6 21 -7 5 -8 2 -3 -6 6 -10 4 -12 -9 -7
-10 4 -15 3 -11 -3 3 -6 -1 -13 -9 -16 -9 -3 -14 -10 -11 -15 10 -15 -50 -37
-117 -43 -15 -1 -31 -5 -34 -9 -4 -4 -20 -7 -36 -7 -16 0 -27 -4 -24 -9 4 -5
0 -12 -6 -15 -7 -3 3 -4 23 -1 19 3 39 2 42 -2 4 -3 17 -7 30 -8 66 -6 146
-30 159 -49 4 -6 -1 -18 -12 -26 -19 -15 -19 -15 5 -16 21 -2 24 2 21 22 -4
21 -2 23 15 14 10 -6 19 -14 19 -19 0 -4 11 -13 24 -20 13 -7 30 -24 37 -38
11 -20 11 -26 -1 -35 -12 -8 -11 -9 4 -4 12 4 24 0 32 -11 17 -23 18 -36 2
-28 -7 4 -5 0 4 -8 15 -12 16 -16 3 -33 -22 -29 -18 -39 5 -13 11 13 19 20 18
14 -1 -5 2 -20 6 -33 9 -27 -12 -80 -34 -86 -9 -2 -5 -4 8 -5 14 -1 22 5 22
15 0 8 4 13 9 10 5 -4 9 -101 9 -221 1 -194 -1 -215 -16 -216 -16 -1 -16 -2 0
-6 15 -4 17 -28 13 -281 -1 -152 -6 -290 -10 -307 -10 -47 -41 -111 -72 -150
-37 -48 -125 -99 -155 -90 -16 4 -19 4 -9 -3 16 -11 9 -14 -82 -32 -65 -13
-128 -11 -139 5 -5 6 -8 6 -8 -2 0 -9 -55 -12 -225 -13 -193 0 -225 2 -225 15
0 8 -8 15 -17 14 -11 0 -13 -3 -5 -6 23 -9 12 -18 -26 -20 -27 -2 -33 0 -22 7
13 8 12 10 -2 10 -10 0 -18 -4 -18 -10 0 -15 -70 -12 -71 3 0 9 -2 9 -6 0 -6
-15 -73 -18 -73 -3 0 6 -5 10 -11 10 -5 0 -7 -5 -4 -10 4 -6 -15 -10 -49 -10
-38 0 -56 4 -57 13 0 9 -2 9 -6 0 -7 -19 -53 -16 -53 2 0 9 -9 15 -22 14 -17
-1 -19 -2 -5 -6 16 -4 25 -23 10 -23 -19 1 -35 19 -30 35 4 9 12 13 18 9 8 -4
9 -3 5 5 -4 6 -11 9 -15 6 -12 -7 -8 119 4 128 7 4 7 10 0 15 -16 11 -20 242
-5 242 9 0 9 4 -1 16 -10 12 -10 20 -1 35 10 15 9 19 0 20 -9 0 -9 2 -2 5 8 3
9 17 3 42 -10 47 -7 105 6 114 6 5 5 8 -2 8 -7 0 -13 9 -13 21 0 11 5 17 10
14 6 -3 10 1 10 9 0 9 -3 16 -7 16 -5 0 -9 17 -10 37 -2 49 20 65 28 20 l6
-32 2 38 c1 31 -2 37 -16 35 -12 -2 -19 4 -21 20 -2 12 1 22 7 22 6 0 11 5 11
11 0 5 -4 7 -10 4 -5 -3 -10 -1 -10 4 0 6 6 11 13 11 7 0 8 3 2 8 -11 8 -14
74 -4 82 9 7 21 50 14 50 -3 0 -10 -10 -14 -22 -7 -18 -9 -12 -8 25 0 26 3 47
7 47 4 0 8 11 8 25 0 13 -4 22 -9 19 -5 -3 -9 0 -9 5 0 6 5 11 11 11 6 0 7 5
2 13 -12 18 -11 241 1 249 6 4 5 12 -3 22 -9 11 -10 20 -1 35 7 15 7 21 0 21
-7 0 -8 6 0 19 13 25 13 41 0 21 -7 -10 -8 2 -4 40 7 67 7 62 1 133 -5 53 -4
57 11 45 14 -11 14 -9 0 8 -21 24 -24 64 -5 64 8 0 8 3 1 8 -7 4 -10 58 -8
152 1 80 3 145 4 145 1 0 3 12 4 27 1 14 -1 25 -4 23 -3 -2 -6 18 -7 43 -1 27
3 50 10 54 9 6 9 8 1 8 -13 0 -12 139 1 160 5 9 4 11 -3 6 -7 -4 -12 -2 -12 3
0 6 6 11 13 11 8 0 7 4 -3 10 -13 9 -13 11 0 20 10 6 11 10 3 10 -20 0 -15 30
5 31 15 1 15 2 0 6 -16 4 -22 43 -6 43 4 0 8 5 8 11 0 5 -4 7 -10 4 -14 -9
-12 18 3 34 10 11 9 12 -1 7 -21 -12 -8 65 14 82 18 14 18 14 -1 8 -20 -6 -20
-2 -20 147 1 126 4 152 16 149 11 -2 11 0 -2 10 -13 11 -15 38 -14 173 1 88 3
161 4 163 3 7 67 -4 73 -13z m1402 6 c4 -5 0 -11 -6 -14 -10 -3 -10 -8 1 -18
8 -8 11 -9 7 -2 -3 6 -2 14 4 18 6 4 8 11 4 16 -6 11 70 6 100 -6 10 -4 21 -4
25 1 9 13 31 16 31 4 0 -5 -5 -10 -12 -10 -6 0 -9 -2 -7 -5 3 -2 15 -2 28 2
16 4 19 8 10 13 -7 5 103 7 243 7 175 -1 251 -5 242 -12 -11 -7 -4 -10 23 -12
29 -1 33 1 18 7 -23 10 -28 9 119 16 95 4 110 2 122 -13 11 -14 13 -14 9 -2
-5 12 3 15 40 15 25 -1 45 -4 45 -8 0 -5 -5 -8 -12 -8 -6 0 -8 -3 -4 -7 4 -5
13 0 20 9 8 11 24 16 42 15 l29 -2 2 -203 3 -202 -220 0 c-157 1 -220 5 -220
13 0 8 -3 8 -12 -1 -7 -7 -28 -12 -47 -11 -29 0 -32 2 -16 9 19 8 19 9 -1 9
-12 1 -25 -6 -28 -15 -3 -9 -6 -258 -6 -555 l0 -539 269 0 c219 0 270 -3 274
-14 3 -7 5 -88 5 -180 0 -139 -2 -166 -15 -166 -8 0 -11 -4 -8 -10 4 -7 -85
-10 -259 -10 l-266 0 0 -545 c0 -544 0 -545 21 -545 11 0 17 -4 14 -10 -3 -5
-1 -10 4 -10 6 0 11 5 11 10 0 6 12 10 26 10 14 0 23 -4 19 -10 -3 -5 -1 -10
4 -10 6 0 11 5 11 10 0 6 32 10 76 10 47 0 73 -4 69 -10 -3 -5 -1 -10 4 -10 6
0 11 5 11 10 0 6 43 10 110 10 67 0 110 -4 110 -10 0 -5 5 -10 11 -10 5 0 7 5
4 10 -3 6 -1 10 4 10 6 0 11 -6 12 -12 0 -10 2 -10 6 0 17 42 23 -10 22 -188
-1 -110 -2 -200 -3 -201 0 0 -39 -3 -85 -6 -60 -4 -82 -2 -77 6 4 6 2 11 -3
11 -6 0 -11 -4 -11 -10 0 -5 -19 -10 -42 -9 -37 1 -39 2 -18 9 l25 8 -27 1
c-16 1 -28 -3 -28 -8 0 -11 -265 -10 -276 2 -4 4 -12 7 -18 7 -6 0 -4 -5 4
-10 10 -7 -30 -10 -122 -10 -104 0 -138 3 -138 13 0 9 -2 9 -8 -1 -5 -7 -27
-12 -55 -11 -43 2 -47 4 -48 28 l-1 26 -7 -25 c-5 -18 -15 -26 -34 -28 -15 -2
-27 1 -27 6 0 5 -7 9 -15 9 -8 0 -13 -3 -11 -6 2 -3 -29 -7 -70 -8 -76 -3 -88
5 -54 35 8 8 10 11 3 8 -7 -4 -6 11 5 44 9 27 18 46 22 41 3 -6 7 38 8 97 2
58 5 109 8 114 3 4 5 538 5 1187 0 1104 1 1179 17 1174 15 -6 15 -5 -1 11 -15
16 -18 38 -18 165 0 171 -13 334 -28 374 -6 16 -9 33 -5 38 3 5 -1 9 -8 9 -9
0 -9 3 2 10 8 5 10 10 5 10 -6 0 -19 14 -28 30 l-18 30 25 0 c14 0 27 -4 30
-9z m1576 0 c3 -1 -2 -6 -10 -11 -13 -8 -12 -10 3 -10 9 0 17 7 17 16 0 13 14
15 91 11 63 -3 94 -8 101 -18 8 -11 9 -10 4 4 -3 11 0 17 10 17 10 0 14 -6 11
-14 -4 -10 -1 -13 9 -9 7 3 14 8 14 12 0 3 37 6 83 7 45 0 73 -1 62 -4 -11 -2
-24 -8 -29 -12 -11 -11 35 0 49 11 6 4 53 7 107 6 53 -1 91 -5 85 -9 -8 -5 -6
-8 6 -8 9 0 17 4 17 9 0 4 13 8 29 7 16 -1 27 -4 24 -8 -2 -5 0 -8 6 -8 5 0
12 4 15 8 3 5 19 7 35 4 17 -2 28 -8 25 -13 -3 -5 1 -6 9 -3 22 8 99 -15 91
-27 -3 -6 0 -9 7 -8 25 4 53 -13 94 -56 56 -58 71 -83 90 -148 14 -49 16 -122
13 -604 l-3 -548 -23 -52 c-13 -28 -43 -69 -65 -90 -45 -41 -104 -82 -93 -64
5 7 1 9 -8 5 -9 -3 -13 -11 -9 -18 3 -6 3 -8 -2 -4 -4 4 -14 3 -21 -2 -15 -13
-64 -23 -121 -24 -22 -1 -39 -4 -37 -8 2 -3 -30 -9 -71 -13 -71 -7 -101 -19
-52 -21 52 -3 77 -9 77 -19 0 -5 4 -4 9 4 6 9 16 11 32 5 13 -4 36 -6 52 -5
15 1 27 -1 27 -6 0 -4 12 -9 28 -9 41 -2 79 -12 128 -36 34 -16 42 -23 34 -33
-9 -10 -7 -12 8 -8 23 6 73 -52 64 -75 -4 -11 -1 -13 7 -7 10 6 11 2 6 -15 -5
-15 -3 -20 3 -16 11 7 28 -31 18 -41 -3 -3 -1 -14 5 -24 6 -12 6 -19 0 -19 -5
0 -12 6 -15 13 -3 6 -3 1 0 -13 4 -14 11 -26 15 -28 14 -6 11 -979 -2 -988 -8
-4 -7 -9 2 -14 13 -8 16 -29 22 -142 2 -37 9 -74 16 -82 7 -8 13 -24 14 -35 1
-12 6 -21 11 -21 5 0 6 -3 3 -7 -4 -3 -2 -12 4 -20 6 -7 8 -13 3 -13 -5 0 -3
-4 4 -8 6 -5 -72 -9 -175 -11 -144 -1 -188 1 -194 11 -7 10 -9 10 -9 0 0 -9
-22 -12 -85 -11 -94 3 -114 9 -93 30 7 8 14 34 15 58 1 29 -2 40 -8 30 -5 -8
-9 -22 -9 -31 0 -10 -6 -18 -12 -19 -7 0 -5 -4 5 -8 17 -6 17 -8 4 -20 -13
-11 -17 -7 -26 25 -6 21 -8 49 -5 63 5 21 3 23 -6 11 -9 -12 -11 -8 -7 21 3
20 1 41 -4 46 -5 5 -9 279 -9 622 l-1 614 -22 17 c-38 30 -96 42 -193 42 -53
0 -98 -3 -101 -6 -4 -3 1 -6 10 -6 21 0 24 -59 5 -79 -10 -11 -10 -13 0 -7 7
4 12 1 12 -8 0 -9 -6 -16 -12 -17 -10 0 -10 -2 0 -6 7 -3 12 -22 11 -46 0 -33
-2 -38 -9 -22 -7 16 -9 17 -9 3 -1 -9 4 -20 9 -23 14 -9 12 -55 -2 -55 -9 0
-8 -4 2 -10 13 -8 12 -10 -5 -11 -17 -1 -17 -2 -2 -6 14 -4 17 -16 17 -65 0
-45 -3 -59 -13 -55 -7 3 -13 -3 -13 -14 0 -11 4 -15 11 -9 14 12 18 -297 3
-323 -5 -11 -6 -17 -1 -14 13 8 12 -306 -1 -315 -8 -5 -7 -8 1 -8 6 0 11 -16
11 -36 0 -27 -3 -33 -10 -23 -8 11 -9 10 -4 -3 3 -10 9 -26 12 -35 5 -15 4
-16 -5 -3 -9 13 -11 13 -11 -2 0 -9 6 -18 13 -21 8 -3 6 -10 -8 -21 -17 -14
-18 -15 -2 -10 14 5 18 2 15 -12 -2 -11 -7 -22 -13 -26 -6 -5 -5 -8 3 -8 7 0
12 -15 12 -40 0 -25 -5 -40 -12 -40 -10 0 -10 -2 -1 -8 16 -10 12 -54 -7 -70
-13 -10 -12 -11 5 -5 18 6 19 5 5 -12 -9 -11 -10 -16 -2 -11 6 4 12 2 12 -3 0
-7 -33 -11 -90 -11 -79 0 -90 2 -91 18 0 15 -1 15 -7 1 -6 -13 -28 -16 -129
-18 -83 -1 -123 1 -123 9 0 8 -6 8 -20 0 -12 -6 -35 -10 -53 -8 -30 3 -32 5
-32 43 0 26 5 42 15 47 12 5 11 7 -5 8 l-20 1 20 9 c15 6 16 9 4 9 -12 1 -16
14 -18 52 -2 45 0 51 15 45 16 -6 17 -5 2 11 -19 23 -24 123 -6 123 9 0 10 2
2 8 -8 5 -11 52 -9 147 2 165 1 152 23 158 13 4 11 5 -5 6 -19 1 -23 6 -22 34
1 30 2 31 8 6 5 -23 8 -25 19 -13 9 10 9 14 1 14 -8 0 -7 5 2 17 8 9 9 14 4
11 -6 -4 -17 -3 -25 3 -13 7 -13 9 0 9 13 0 13 1 0 10 -13 8 -12 10 3 10 10 0
17 7 16 18 0 10 -3 12 -6 5 -8 -20 -23 -15 -23 7 0 11 6 20 13 20 8 0 7 4 -3
10 -13 9 -13 12 3 21 18 11 24 39 7 39 -5 0 -7 -7 -4 -15 4 -8 1 -15 -5 -15
-6 0 -9 24 -8 65 1 36 5 65 8 65 3 0 11 11 17 25 9 20 9 23 -3 18 -8 -3 -13
-9 -10 -13 3 -5 1 -11 -4 -14 -5 -3 -9 12 -9 33 -1 31 3 40 20 44 19 5 20 8 8
22 -13 16 -15 16 -21 -2 -7 -16 -8 -16 -8 4 -1 12 5 24 12 27 10 5 10 7 0 12
-7 3 -13 10 -13 15 0 6 5 7 10 4 6 -3 10 -1 10 4 0 6 -4 11 -9 11 -13 0 -7 30
8 40 9 5 11 18 6 40 -5 23 -4 30 4 26 7 -5 8 -1 4 10 -5 14 -8 13 -19 -7 -20
-37 -16 -13 5 31 21 44 20 48 -3 24 -15 -14 -16 -13 -16 16 0 27 3 32 20 27
11 -3 18 -1 14 4 -3 5 -12 9 -20 9 -8 0 -14 4 -14 10 0 5 6 7 14 4 8 -3 17 -1
21 5 3 6 0 9 -8 5 -8 -3 -18 -1 -22 5 -3 6 1 11 10 11 12 0 15 5 10 18 -4 9
-8 23 -8 30 0 6 -4 12 -9 12 -4 0 -8 25 -8 55 0 37 4 55 13 55 8 0 9 3 1 8 -7
4 -11 56 -11 150 0 78 2 140 5 138 4 -5 32 18 32 27 0 2 -7 4 -15 4 -8 0 -12
-4 -9 -9 3 -4 0 -8 -5 -8 -6 0 -11 16 -11 35 0 27 4 35 18 35 14 0 15 -2 2
-10 -12 -7 -12 -11 -2 -20 6 -5 10 -7 7 -4 -3 4 0 13 6 20 9 10 7 15 -5 20
-21 8 -20 21 2 27 13 4 11 5 -5 6 -23 1 -31 25 -13 36 6 3 7 -1 4 -9 -4 -11 0
-16 10 -16 13 0 15 4 6 19 -7 14 -6 21 3 25 6 3 3 4 -8 1 -17 -4 -20 1 -21 31
-1 24 1 31 7 23 7 -11 9 -10 9 4 0 9 -4 17 -10 17 -5 0 -10 14 -10 30 0 17 4
30 8 30 4 0 8 9 9 20 1 11 -2 18 -6 16 -4 -3 -9 19 -10 49 -1 33 2 55 8 55 6
0 11 5 11 11 0 5 -4 8 -8 5 -5 -3 -8 15 -8 39 0 24 3 42 8 39 4 -3 8 -1 8 5 0
5 -6 12 -12 14 -7 3 -2 6 12 7 22 1 22 2 6 9 -19 7 -32 71 -15 71 5 0 9 -8 9
-17 0 -15 2 -16 9 -3 7 10 4 18 -10 28 -15 10 -19 23 -17 53 3 41 13 51 21 22
4 -14 5 -12 6 5 1 14 -5 22 -15 22 -14 0 -14 3 -4 15 7 9 8 15 2 15 -16 0 -2
38 17 43 10 3 7 5 -8 6 -23 1 -23 2 -8 19 21 23 22 61 2 68 -8 4 -15 16 -14
28 0 20 1 20 9 1 8 -18 9 -17 9 8 1 15 -4 27 -10 27 -14 0 -9 102 5 112 7 5 7
8 -1 8 -7 0 -13 10 -13 23 0 13 6 29 13 36 10 11 10 13 0 7 -9 -5 -13 3 -13
28 0 20 5 36 10 36 6 0 10 5 10 11 0 5 -4 7 -10 4 -5 -3 -10 -1 -10 4 0 6 5
11 12 11 9 0 9 3 0 12 -16 16 -16 62 0 52 7 -5 8 -3 2 7 -13 21 -14 39 -2 39
7 0 7 5 1 13 -5 6 -10 26 -12 43 l-2 30 158 -2 c87 -1 160 -2 163 -3z m1744
-2 c-3 -5 0 -9 5 -9 6 0 11 3 11 8 0 4 47 7 105 7 88 0 104 -2 100 -14 -4 -11
-1 -10 13 2 22 20 67 24 56 5 -6 -10 -4 -10 8 0 25 20 205 15 218 -7 5 -9 10
-11 10 -4 0 12 51 10 73 -4 6 -4 20 -9 30 -10 28 -5 100 -49 123 -76 45 -53
50 -61 34 -53 -8 4 -7 1 4 -8 10 -8 15 -20 10 -27 -4 -7 -3 -10 3 -6 6 4 13
-1 16 -11 2 -9 8 -26 12 -37 5 -16 5 -17 -4 -5 -9 13 -11 13 -11 -1 0 -8 6
-21 13 -27 16 -17 23 -2737 7 -2727 -5 3 -10 1 -10 -4 0 -6 5 -11 11 -11 6 0
8 -8 5 -18 -3 -9 -8 -31 -10 -47 -7 -55 -18 -85 -29 -78 -6 3 -7 1 -3 -6 17
-27 -71 -128 -101 -117 -9 4 -14 4 -10 0 9 -9 -13 -35 -24 -28 -5 3 -9 1 -9
-5 0 -5 -19 -8 -42 -6 -27 2 -35 1 -24 -4 25 -10 8 -21 -37 -26 -18 -2 -53 -7
-79 -10 -31 -3 -48 -2 -48 5 0 8 -6 7 -20 0 -15 -8 -20 -8 -21 2 0 10 -2 10
-6 1 -6 -15 -73 -17 -73 -3 0 7 -6 7 -18 1 -26 -14 -322 -14 -322 -1 0 6 5 8
10 5 6 -3 10 -1 10 4 0 16 -16 13 -30 -4 -25 -30 -300 3 -300 36 0 6 -4 7 -10
4 -5 -3 -10 -1 -10 4 0 6 6 11 13 12 9 0 9 2 -1 6 -6 2 -9 10 -5 16 14 22 11
36 -5 29 -11 -4 -12 -7 -3 -10 9 -3 7 -10 -6 -25 -10 -11 -12 -17 -4 -12 10 5
12 4 7 -3 -9 -16 -32 -3 -71 39 -16 18 -24 29 -17 25 18 -11 14 2 -9 27 -19
20 -20 21 -14 2 5 -15 4 -17 -3 -6 -6 8 -8 20 -5 28 4 11 8 11 22 1 14 -12 15
-11 2 5 -10 12 -17 14 -26 7 -10 -8 -16 -3 -24 23 -17 50 -23 109 -11 102 5
-3 10 -1 10 4 0 6 -6 11 -13 11 -7 0 -13 9 -14 20 -1 11 2 20 8 20 5 0 9 5 9
11 0 5 -4 7 -10 4 -6 -4 -9 122 -9 357 1 262 4 365 13 370 8 6 8 8 -1 8 -8 0
-13 15 -13 40 0 22 5 40 10 40 6 0 10 5 10 11 0 5 -4 7 -10 4 -5 -3 -10 1 -10
10 0 12 5 15 18 11 14 -5 14 -4 -2 9 -14 11 -16 15 -5 15 10 0 11 2 2 8 -13 8
-15 89 -2 98 5 3 3 14 -3 24 -10 15 -10 22 0 32 6 6 12 21 11 32 -1 18 -2 17
-9 -4 -8 -23 -8 -22 -7 7 1 26 5 32 18 28 13 -5 16 -1 12 14 -3 11 -10 18 -17
15 -7 -3 -12 5 -13 18 -2 18 0 20 7 8 9 -13 10 -13 10 1 0 8 -6 21 -12 28 -7
7 -8 11 -3 9 11 -3 15 4 15 25 0 9 -2 9 -8 -1 -5 -7 -9 69 -11 168 -1 141 1
180 11 180 10 0 10 2 0 8 -13 9 -11 59 3 82 5 8 4 11 -3 6 -8 -5 -11 62 -10
239 1 135 5 245 10 245 4 0 8 5 8 11 0 5 -4 8 -9 4 -6 -3 -10 53 -10 145 0
109 3 150 12 150 9 0 9 2 0 8 -7 5 -11 36 -11 87 0 100 5 118 26 111 15 -5 15
-4 0 8 -20 15 -22 28 -9 54 11 19 23 51 27 69 4 20 54 81 87 106 48 35 54 38
54 21 0 -8 -6 -13 -14 -10 -18 7 -16 2 6 -18 17 -16 18 -15 16 9 -5 38 18 54
67 49 30 -2 37 -1 23 5 -17 7 -12 10 25 18 58 12 242 14 234 2z m-3534 -105
c0 -14 -3 -14 -15 -4 -8 7 -15 14 -15 16 0 2 7 4 15 4 8 0 15 -7 15 -16z m25
-14 c3 -5 1 -10 -4 -10 -6 0 -11 5 -11 10 0 6 2 10 4 10 3 0 8 -4 11 -10z m19
-36 c10 -25 -1 -29 -14 -5 -6 12 -7 21 -1 21 5 0 12 -7 15 -16z m1438 -426
c-10 -10 -10 -8 -2 37 1 6 4 2 7 -9 3 -10 0 -23 -5 -28z m-4902 -792 c0 -3 -4
-8 -10 -11 -5 -3 -10 -1 -10 4 0 6 5 11 10 11 6 0 10 -2 10 -4z m510 -61 c7
-8 8 -15 2 -15 -5 0 -15 7 -22 15 -7 8 -8 15 -2 15 5 0 15 -7 22 -15z m124
-301 c3 -8 2 -12 -4 -9 -6 3 -10 10 -10 16 0 14 7 11 14 -7z m97 -97 c-1 -12
-15 -9 -19 4 -3 6 1 10 8 8 6 -3 11 -8 11 -12z m4174 -77 c3 -5 1 -10 -4 -10
-6 0 -11 5 -11 10 0 6 2 10 4 10 3 0 8 -4 11 -10z m5 -215 c0 -8 -4 -15 -8
-15 -5 0 -9 7 -9 15 0 8 4 15 9 15 4 0 8 -7 8 -15z"/>
<path d="M1595 7070 c-3 -5 -2 -10 4 -10 5 0 13 5 16 10 3 6 2 10 -4 10 -5 0
-13 -4 -16 -10z"/>
<path d="M1730 7070 c0 -5 5 -10 10 -10 6 0 10 5 10 10 0 6 -4 10 -10 10 -5 0
-10 -4 -10 -10z"/>
<path d="M1800 7069 c0 -5 5 -7 10 -4 6 3 10 8 10 11 0 2 -4 4 -10 4 -5 0 -10
-5 -10 -11z"/>
<path d="M1920 7070 c0 -5 -8 -7 -17 -3 -19 6 -18 5 7 -14 13 -10 16 -8 17 8
1 10 0 19 -3 19 -2 0 -4 -4 -4 -10z"/>
<path d="M2234 7058 c-5 -7 -3 -8 6 -3 7 4 16 2 21 -6 7 -11 9 -10 9 4 0 19
-25 23 -36 5z"/>
<path d="M1530 7056 c0 -2 13 -6 29 -8 17 -2 28 -1 25 4 -5 8 -54 12 -54 4z"/>
<path d="M2050 7056 c0 -2 11 -6 25 -8 14 -3 25 -1 25 3 0 5 -11 9 -25 9 -14
0 -25 -2 -25 -4z"/>
<path d="M2308 7043 c6 -2 18 -2 25 0 6 3 1 5 -13 5 -14 0 -19 -2 -12 -5z"/>
<path d="M2430 6988 c0 -4 5 -8 11 -8 5 0 7 -6 3 -12 -4 -7 -3 -9 1 -5 15 13
14 34 -1 34 -8 0 -14 -4 -14 -9z"/>
<path d="M1319 6973 c-13 -16 -12 -17 4 -4 9 7 17 15 17 17 0 8 -8 3 -21 -13z"/>
<path d="M2400 6976 c0 -2 7 -7 16 -10 8 -3 12 -2 9 4 -6 10 -25 14 -25 6z"/>
<path d="M2484 6919 c-3 -6 -2 -15 3 -20 5 -5 9 -1 9 11 0 23 -2 24 -12 9z"/>
<path d="M2502 6855 c0 -16 2 -22 5 -12 2 9 2 23 0 30 -3 6 -5 -1 -5 -18z"/>
<path d="M1260 6779 c0 -5 5 -7 10 -4 6 3 10 8 10 11 0 2 -4 4 -10 4 -5 0 -10
-5 -10 -11z"/>
<path d="M1930 6716 c0 -2 8 -10 18 -17 15 -13 16 -12 3 4 -13 16 -21 21 -21
13z"/>
<path d="M1982 6701 c-11 -7 -11 -9 0 -14 9 -3 15 1 15 9 0 8 -1 14 -1 14 -1
0 -7 -4 -14 -9z"/>
<path d="M1241 6624 c0 -11 3 -14 6 -6 3 7 2 16 -1 19 -3 4 -6 -2 -5 -13z"/>
<path d="M2025 6610 c-3 -5 -1 -10 4 -10 6 0 11 5 11 10 0 6 -2 10 -4 10 -3 0
-8 -4 -11 -10z"/>
<path d="M1243 6540 c0 -36 2 -50 4 -32 2 17 2 47 0 65 -2 17 -4 3 -4 -33z"/>
<path d="M1727 6593 c-4 -3 -7 -11 -7 -17 0 -6 5 -5 12 2 6 6 9 14 7 17 -3 3
-9 2 -12 -2z"/>
<path d="M2058 6588 c16 -16 15 -28 0 -24 -7 1 -10 1 -6 -1 4 -2 4 -12 1 -21
-3 -11 0 -9 11 5 16 22 12 53 -7 53 -7 0 -7 -4 1 -12z"/>
<path d="M1707 6531 c-4 -17 -3 -21 5 -13 5 5 8 16 6 23 -3 8 -7 3 -11 -10z"/>
<path d="M2057 6501 c-4 -17 -3 -21 5 -13 5 5 8 16 6 23 -3 8 -7 3 -11 -10z"/>
<path d="M1263 6440 c0 -25 2 -35 4 -22 2 12 2 32 0 45 -2 12 -4 2 -4 -23z"/>
<path d="M1680 6411 c0 -6 4 -13 10 -16 6 -3 7 1 4 9 -7 18 -14 21 -14 7z"/>
<path d="M1263 6280 c0 -25 2 -35 4 -22 2 12 2 32 0 45 -2 12 -4 2 -4 -23z"/>
<path d="M2062 6240 c0 -14 2 -19 5 -12 2 6 2 18 0 25 -3 6 -5 1 -5 -13z"/>
<path d="M1242 6180 c0 -14 2 -19 5 -12 2 6 2 18 0 25 -3 6 -5 1 -5 -13z"/>
<path d="M2061 6154 c0 -11 3 -14 6 -6 3 7 2 16 -1 19 -3 4 -6 -2 -5 -13z"/>
<path d="M1243 5960 c0 -25 2 -35 4 -22 2 12 2 32 0 45 -2 12 -4 2 -4 -23z"/>
<path d="M2060 5919 c0 -5 5 -7 10 -4 6 3 10 8 10 11 0 2 -4 4 -10 4 -5 0 -10
-5 -10 -11z"/>
<path d="M1692 5880 c0 -14 2 -19 5 -12 2 6 2 18 0 25 -3 6 -5 1 -5 -13z"/>
<path d="M1239 5719 c-2 -27 0 -46 6 -46 6 0 9 16 7 36 -6 57 -9 59 -13 10z"/>
<path d="M2085 5751 c-3 -5 -2 -12 3 -15 5 -3 9 1 9 9 0 17 -3 19 -12 6z"/>
<path d="M1261 5650 c0 -8 4 -22 9 -30 12 -18 12 -2 0 25 -6 13 -9 15 -9 5z"/>
<path d="M2446 5576 c10 -8 21 -12 24 -10 5 6 -21 24 -34 24 -6 0 -1 -6 10
-14z"/>
<path d="M1260 5575 c0 -5 5 -17 10 -25 5 -8 10 -10 10 -5 0 6 -5 17 -10 25
-5 8 -10 11 -10 5z"/>
<path d="M2440 5550 c0 -5 5 -10 11 -10 5 0 7 5 4 10 -3 6 -8 10 -11 10 -2 0
-4 -4 -4 -10z"/>
<path d="M2000 5539 c0 -4 6 -9 13 -12 8 -3 14 0 14 7 0 7 -6 13 -14 13 -7 0
-13 -4 -13 -8z"/>
<path d="M2557 5515 c-4 -8 -3 -16 1 -19 4 -3 9 4 9 15 2 23 -3 25 -10 4z"/>
<path d="M1325 5511 c-11 -5 -23 -7 -27 -4 -4 2 -5 -4 -1 -13 4 -11 8 -13 11
-6 5 15 23 16 20 1 -2 -6 4 -13 13 -14 9 -2 16 3 16 11 0 7 -5 10 -10 7 -6 -4
-8 0 -4 10 3 10 5 17 4 16 -1 0 -11 -4 -22 -8z"/>
<path d="M2164 5491 c4 -5 -2 -15 -11 -20 -15 -9 -13 -10 11 -6 37 6 39 8 14
24 -11 7 -17 8 -14 2z"/>
<path d="M1369 5423 c21 -14 24 -14 37 1 8 9 9 11 2 6 -14 -12 -31 -13 -24 -2
2 4 -5 9 -16 9 -20 2 -20 2 1 -14z"/>
<path d="M2246 5428 c3 -5 10 -6 15 -3 13 9 11 12 -6 12 -8 0 -12 -4 -9 -9z"/>
<path d="M2280 5415 c0 -8 4 -15 10 -15 5 0 7 7 4 15 -4 8 -8 15 -10 15 -2 0
-4 -7 -4 -15z"/>
<path d="M2246 5392 c-3 -5 1 -9 9 -9 8 0 15 4 15 9 0 4 -4 8 -9 8 -6 0 -12
-4 -15 -8z"/>
<path d="M1584 5352 c3 -5 0 -13 -6 -15 -9 -4 -10 -6 -1 -6 17 -1 25 16 12 25
-7 4 -9 3 -5 -4z"/>
<path d="M2430 5306 c0 -2 8 -10 18 -17 15 -13 16 -12 3 4 -13 16 -21 21 -21
13z"/>
<path d="M1678 5248 c5 -5 16 -8 23 -6 8 3 3 7 -10 11 -17 4 -21 3 -13 -5z"/>
<path d="M1720 5231 c0 -5 6 -11 13 -14 8 -3 14 1 14 9 0 8 -6 14 -14 14 -7 0
-13 -4 -13 -9z"/>
<path d="M1336 5213 c-6 -14 -5 -15 5 -6 7 7 10 15 7 18 -3 3 -9 -2 -12 -12z"/>
<path d="M1367 5190 c3 -11 7 -20 9 -20 2 0 4 9 4 20 0 11 -4 20 -9 20 -5 0
-7 -9 -4 -20z"/>
<path d="M1400 5194 c0 -13 18 -39 24 -34 2 3 -2 14 -10 24 -8 11 -14 16 -14
10z"/>
<path d="M1804 5185 c-18 -15 -19 -15 0 -8 13 4 23 0 32 -12 8 -10 14 -15 14
-9 0 5 -7 17 -14 26 -11 16 -15 16 -32 3z"/>
<path d="M1887 5189 c7 -7 15 -10 18 -7 3 3 -2 9 -12 12 -14 6 -15 5 -6 -5z"/>
<path d="M1887 5159 c7 -7 15 -10 18 -7 3 3 -2 9 -12 12 -14 6 -15 5 -6 -5z"/>
<path d="M1395 5140 c3 -5 11 -10 16 -10 6 0 7 5 4 10 -3 6 -11 10 -16 10 -6
0 -7 -4 -4 -10z"/>
<path d="M1456 5142 c-2 -4 4 -8 14 -8 10 0 16 4 14 8 -3 4 -9 8 -14 8 -5 0
-11 -4 -14 -8z"/>
<path d="M1932 5113 c-10 -4 -8 -9 6 -19 15 -10 27 -11 44 -5 21 9 21 10 3 12
-11 1 -26 1 -34 0 -7 -2 -10 2 -6 8 7 12 6 12 -13 4z"/>
<path d="M1588 5079 c13 -5 21 -13 17 -18 -3 -5 0 -13 6 -17 8 -4 9 -3 5 4 -4
7 -2 12 5 12 7 0 4 7 -7 15 -10 8 -26 14 -34 14 -8 0 -5 -4 8 -10z"/>
<path d="M1525 5070 c-3 -5 1 -10 9 -10 9 0 16 5 16 10 0 6 -4 10 -9 10 -6 0
-13 -4 -16 -10z"/>
<path d="M1966 5058 c3 -5 10 -6 15 -3 13 9 11 12 -6 12 -8 0 -12 -4 -9 -9z"/>
<path d="M1681 4974 c0 -11 3 -14 6 -6 3 7 2 16 -1 19 -3 4 -6 -2 -5 -13z"/>
<path d="M1700 4979 c0 -5 5 -7 10 -4 6 3 10 8 10 11 0 2 -4 4 -10 4 -5 0 -10
-5 -10 -11z"/>
<path d="M2031 4984 c-1 -6 5 -16 12 -22 10 -8 13 -6 14 11 2 15 0 18 -6 8 -7
-11 -9 -11 -14 0 -3 8 -6 9 -6 3z"/>
<path d="M1243 4920 c0 -25 2 -35 4 -22 2 12 2 32 0 45 -2 12 -4 2 -4 -23z"/>
<path d="M1701 4894 c0 -11 3 -14 6 -6 3 7 2 16 -1 19 -3 4 -6 -2 -5 -13z"/>
<path d="M1710 4854 c0 -8 5 -12 10 -9 6 4 8 11 5 16 -9 14 -15 11 -15 -7z"/>
<path d="M2063 4835 c0 -22 2 -30 4 -17 2 12 2 30 0 40 -3 9 -5 -1 -4 -23z"/>
<path d="M1712 4690 c0 -14 2 -19 5 -12 2 6 2 18 0 25 -3 6 -5 1 -5 -13z"/>
<path d="M2042 4690 c0 -14 2 -19 5 -12 2 6 2 18 0 25 -3 6 -5 1 -5 -13z"/>
<path d="M1243 4600 c0 -25 2 -35 4 -22 2 12 2 32 0 45 -2 12 -4 2 -4 -23z"/>
<path d="M2062 4530 c0 -19 2 -27 5 -17 2 9 2 25 0 35 -3 9 -5 1 -5 -18z"/>
<path d="M2060 4416 c0 -8 4 -17 9 -20 5 -4 7 3 4 14 -6 23 -13 26 -13 6z"/>
<path d="M2065 4319 c-4 -6 -5 -12 -2 -15 2 -3 7 2 10 11 7 17 1 20 -8 4z"/>
<path d="M2062 4250 c0 -14 2 -19 5 -12 2 6 2 18 0 25 -3 6 -5 1 -5 -13z"/>
<path d="M1691 4214 c0 -11 3 -14 6 -6 3 7 2 16 -1 19 -3 4 -6 -2 -5 -13z"/>
<path d="M2050 4211 c0 -7 -4 -9 -10 -6 -6 3 -10 -4 -10 -17 l0 -22 16 22 c9
13 13 26 10 29 -3 4 -6 1 -6 -6z"/>
<path d="M1983 4143 c-15 -5 -17 -23 -4 -23 5 0 11 7 15 15 3 8 4 15 3 14 -1
0 -8 -3 -14 -6z"/>
<path d="M1763 4105 c0 -8 4 -12 9 -9 5 3 6 10 3 15 -9 13 -12 11 -12 -6z"/>
<path d="M1904 4102 c3 -5 0 -13 -6 -15 -9 -4 -10 -6 -1 -6 17 -1 25 16 12 25
-7 4 -9 3 -5 -4z"/>
<path d="M1794 4093 c3 -4 18 -8 32 -9 14 -2 24 0 20 3 -3 3 -17 7 -32 9 -14
1 -23 0 -20 -3z"/>
<path d="M1262 4025 c0 -16 2 -22 5 -12 2 9 2 23 0 30 -3 6 -5 -1 -5 -18z"/>
<path d="M1230 4033 c0 -4 5 -15 10 -23 8 -13 10 -13 10 2 0 9 -4 20 -10 23
-5 3 -10 3 -10 -2z"/>
<path d="M1240 3976 c0 -8 5 -18 10 -21 6 -3 10 1 10 9 0 8 -4 18 -10 21 -5 3
-10 -1 -10 -9z"/>
<path d="M1260 3926 c0 -8 4 -17 9 -20 5 -4 7 3 4 14 -6 23 -13 26 -13 6z"/>
<path d="M2409 3838 c-4 -11 -6 -70 -2 -60 3 6 8 10 13 7 10 -6 8 15 -3 33 -5
6 -4 12 0 12 5 0 15 -6 23 -12 12 -11 12 -10 1 5 -12 14 -29 23 -32 15z"/>
<path d="M1335 3800 c3 -5 8 -10 11 -10 2 0 4 5 4 10 0 6 -5 10 -11 10 -5 0
-7 -4 -4 -10z"/>
<path d="M1380 3796 c0 -2 8 -10 18 -17 15 -13 16 -12 3 4 -13 16 -21 21 -21
13z"/>
<path d="M1460 3750 c0 -5 7 -7 15 -4 8 4 15 8 15 10 0 2 -7 4 -15 4 -8 0 -15
-4 -15 -10z"/>
<path d="M2246 3743 c-6 -14 -5 -15 5 -6 7 7 10 15 7 18 -3 3 -9 -2 -12 -12z"/>
<path d="M1488 3733 c7 -3 16 -2 19 1 4 3 -2 6 -13 5 -11 0 -14 -3 -6 -6z"/>
<path d="M2740 7070 c-9 -6 -10 -10 -3 -10 6 0 15 5 18 10 8 12 4 12 -15 0z"/>
<path d="M3590 7070 c0 -5 5 -10 11 -10 5 0 7 5 4 10 -3 6 -8 10 -11 10 -2 0
-4 -4 -4 -10z"/>
<path d="M2776 7061 c-6 -10 24 -25 32 -16 3 3 0 5 -7 5 -7 0 -9 5 -6 10 3 6
2 10 -4 10 -5 0 -12 -4 -15 -9z"/>
<path d="M2888 7063 c7 -3 16 -2 19 1 4 3 -2 6 -13 5 -11 0 -14 -3 -6 -6z"/>
<path d="M3115 7060 c-3 -6 1 -7 9 -4 18 7 21 14 7 14 -6 0 -13 -4 -16 -10z"/>
<path d="M3268 7063 c7 -3 16 -2 19 1 4 3 -2 6 -13 5 -11 0 -14 -3 -6 -6z"/>
<path d="M3562 7056 c7 -8 15 -12 17 -11 5 6 -10 25 -20 25 -5 0 -4 -6 3 -14z"/>
<path d="M3620 7066 c0 -2 18 -6 39 -8 22 -2 37 0 35 4 -5 8 -74 11 -74 4z"/>
<path d="M3525 7050 c3 -5 8 -10 11 -10 2 0 4 5 4 10 0 6 -5 10 -11 10 -5 0
-7 -4 -4 -10z"/>
<path d="M3730 7056 c0 -2 9 -6 20 -9 11 -3 18 -1 14 4 -5 9 -34 13 -34 5z"/>
<path d="M2686 7042 c-3 -5 1 -9 9 -9 8 0 12 4 9 9 -3 4 -7 8 -9 8 -2 0 -6 -4
-9 -8z"/>
<path d="M3791 6924 c0 -11 3 -14 6 -6 3 7 2 16 -1 19 -3 4 -6 -2 -5 -13z"/>
<path d="M3793 6825 c0 -22 2 -30 4 -17 2 12 2 30 0 40 -3 9 -5 -1 -4 -23z"/>
<path d="M3230 6712 c0 -6 -8 -13 -17 -15 -16 -4 -16 -5 -1 -6 18 -1 34 16 24
26 -3 4 -6 1 -6 -5z"/>
<path d="M3340 6716 c0 -2 7 -7 16 -10 8 -3 12 -2 9 4 -6 10 -25 14 -25 6z"/>
<path d="M3393 6693 c9 -2 23 -2 30 0 6 3 -1 5 -18 5 -16 0 -22 -2 -12 -5z"/>
<path d="M3623 6693 c9 -2 23 -2 30 0 6 3 -1 5 -18 5 -16 0 -22 -2 -12 -5z"/>
<path d="M3210 6438 c-3 -26 -1 -43 3 -39 5 5 7 26 5 47 l-3 39 -5 -47z"/>
<path d="M3212 6300 c0 -14 2 -19 5 -12 2 6 2 18 0 25 -3 6 -5 1 -5 -13z"/>
<path d="M3225 5691 c-3 -5 -1 -12 5 -16 5 -3 10 1 10 9 0 18 -6 21 -15 7z"/>
<path d="M3590 5560 c8 -5 20 -10 25 -10 6 0 3 5 -5 10 -8 5 -19 10 -25 10 -5
0 -3 -5 5 -10z"/>
<path d="M3688 5563 c6 -2 18 -2 25 0 6 3 1 5 -13 5 -14 0 -19 -2 -12 -5z"/>
<path d="M3786 5457 c3 -10 9 -15 12 -12 3 3 0 11 -7 18 -10 9 -11 8 -5 -6z"/>
<path d="M3223 4600 c0 -25 2 -35 4 -22 2 12 2 32 0 45 -2 12 -4 2 -4 -23z"/>
<path d="M3230 4211 c0 -5 5 -13 10 -16 6 -3 10 -2 10 4 0 5 -4 13 -10 16 -5
3 -10 2 -10 -4z"/>
<path d="M3206 4145 c-3 -8 -1 -15 4 -15 6 0 10 7 10 15 0 8 -2 15 -4 15 -2 0
-6 -7 -10 -15z"/>
<path d="M3546 4097 c3 -10 9 -15 12 -12 3 3 0 11 -7 18 -10 9 -11 8 -5 -6z"/>
<path d="M3682 4094 c-14 -16 -5 -18 17 -5 7 5 9 11 5 14 -5 3 -15 -1 -22 -9z"/>
<path d="M3616 4091 c-4 -5 3 -7 14 -4 23 6 26 13 6 13 -8 0 -17 -4 -20 -9z"/>
<path d="M2711 3904 c0 -11 3 -14 6 -6 3 7 2 16 -1 19 -3 4 -6 -2 -5 -13z"/>
<path d="M3792 3800 c0 -19 2 -27 5 -17 2 9 2 25 0 35 -3 9 -5 1 -5 -18z"/>
<path d="M2695 3809 c-4 -6 -5 -12 -2 -15 2 -3 7 2 10 11 7 17 1 20 -8 4z"/>
<path d="M2703 3769 c-3 -11 -11 -18 -18 -15 -8 3 -16 -2 -19 -10 -3 -8 -2
-12 3 -9 5 3 12 1 16 -5 8 -13 35 -13 35 1 0 5 -4 7 -10 4 -12 -8 -13 -3 0 29
5 14 7 26 4 26 -3 0 -8 -9 -11 -21z"/>
<path d="M3510 3729 c0 -5 5 -7 10 -4 6 3 10 8 10 11 0 2 -4 4 -10 4 -5 0 -10
-5 -10 -11z"/>
<path d="M4128 7073 c6 -2 18 -2 25 0 6 3 1 5 -13 5 -14 0 -19 -2 -12 -5z"/>
<path d="M4380 7076 c0 -2 7 -7 16 -10 8 -3 12 -2 9 4 -6 10 -25 14 -25 6z"/>
<path d="M4735 7070 c3 -5 14 -10 23 -10 15 0 15 2 2 10 -20 13 -33 13 -25 0z"/>
<path d="M4468 7063 c7 -3 16 -2 19 1 4 3 -2 6 -13 5 -11 0 -14 -3 -6 -6z"/>
<path d="M4574 7062 c3 -3 19 -6 36 -7 17 -1 28 1 24 4 -3 3 -19 6 -35 7 -17
1 -28 -1 -25 -4z"/>
<path d="M4658 7063 c6 -2 18 -2 25 0 6 3 1 5 -13 5 -14 0 -19 -2 -12 -5z"/>
<path d="M4868 7053 c6 -2 18 -2 25 0 6 3 1 5 -13 5 -14 0 -19 -2 -12 -5z"/>
<path d="M5026 7048 c3 -4 9 -8 15 -8 5 0 9 4 9 8 0 5 -7 9 -15 9 -8 0 -12 -4
-9 -9z"/>
<path d="M4652 6713 c-13 -5 -7 -23 9 -23 6 0 7 5 4 10 -10 16 12 12 29 -5 13
-14 15 -13 13 2 -1 18 -28 25 -55 16z"/>
<path d="M4757 6697 c-3 -7 3 -13 14 -13 22 0 25 12 5 19 -8 3 -16 0 -19 -6z"/>
<path d="M5286 6697 c3 -10 9 -15 12 -12 3 3 0 11 -7 18 -10 9 -11 8 -5 -6z"/>
<path d="M4520 6686 l-35 -11 0 -543 0 -542 35 -1 c19 -1 41 -1 48 0 6 1 12
-4 12 -11 0 -9 3 -10 8 -2 6 9 59 21 124 27 9 1 15 3 14 5 -4 3 42 52 49 52 2
0 2 -10 0 -22 -4 -16 -2 -19 7 -10 13 13 21 45 9 38 -4 -3 -7 15 -7 39 0 28 4
42 10 38 7 -5 7 -2 0 8 -6 8 -12 32 -12 54 -1 29 1 36 8 25 6 -9 10 -10 10 -3
0 6 -4 14 -9 17 -14 9 -11 188 3 205 8 11 8 13 0 8 -8 -5 -11 4 -9 26 2 17 4
32 5 32 1 0 3 10 4 22 1 12 -1 20 -6 17 -12 -8 -10 30 4 44 8 8 8 15 0 25 -9
10 -8 17 1 27 9 10 9 11 0 6 -14 -8 -18 6 -6 18 10 10 11 46 1 40 -5 -3 -8 18
-7 46 1 28 6 53 12 57 5 3 3 9 -4 14 -9 6 -10 12 -4 17 13 10 18 35 5 27 -6
-4 -10 10 -8 39 1 30 5 43 12 39 6 -4 5 1 -3 10 -11 14 -11 20 0 35 13 15 12
16 -2 4 -14 -10 -18 -10 -23 4 -7 19 0 34 17 34 7 0 6 -4 -3 -11 -12 -8 -12
-10 -1 -7 8 2 15 12 17 21 2 13 -2 15 -15 7 -12 -6 -22 -5 -31 3 -10 10 -11 9
-5 -2 6 -11 2 -10 -16 2 -13 9 -33 17 -44 17 -15 0 -16 3 -7 9 8 4 -18 6 -59
3 -51 -3 -70 -1 -65 7 4 6 6 11 4 10 -2 -1 -19 -6 -38 -13z"/>
<path d="M3977 6609 c7 -7 15 -10 18 -7 3 3 -2 9 -12 12 -14 6 -15 5 -6 -5z"/>
<path d="M3965 6490 c-3 -5 -1 -10 4 -10 6 0 11 5 11 10 0 6 -2 10 -4 10 -3 0
-8 -4 -11 -10z"/>
<path d="M5280 6480 c0 -5 7 -7 15 -4 8 4 15 8 15 10 0 2 -7 4 -15 4 -8 0 -15
-4 -15 -10z"/>
<path d="M5301 6394 c0 -11 3 -14 6 -6 3 7 2 16 -1 19 -3 4 -6 -2 -5 -13z"/>
<path d="M3973 6345 c0 -8 4 -12 9 -9 5 3 6 10 3 15 -9 13 -12 11 -12 -6z"/>
<path d="M5301 6294 c0 -11 3 -14 6 -6 3 7 2 16 -1 19 -3 4 -6 -2 -5 -13z"/>
<path d="M5283 5835 c0 -8 4 -12 9 -9 5 3 6 10 3 15 -9 13 -12 11 -12 -6z"/>
<path d="M5301 5774 c0 -11 3 -14 6 -6 3 7 2 16 -1 19 -3 4 -6 -2 -5 -13z"/>
<path d="M3960 5771 c0 -6 4 -13 10 -16 6 -3 7 1 4 9 -7 18 -14 21 -14 7z"/>
<path d="M4747 5623 c-4 -3 -7 -11 -7 -17 0 -6 5 -5 12 2 6 6 9 14 7 17 -3 3
-9 2 -12 -2z"/>
<path d="M3960 5575 c0 -8 2 -15 4 -15 2 0 6 7 10 15 3 8 1 15 -4 15 -6 0 -10
-7 -10 -15z"/>
<path d="M4655 5570 c-3 -5 -1 -10 4 -10 6 0 11 5 11 10 0 6 -2 10 -4 10 -3 0
-8 -4 -11 -10z"/>
<path d="M4518 5563 c7 -3 16 -2 19 1 4 3 -2 6 -13 5 -11 0 -14 -3 -6 -6z"/>
<path d="M3955 5520 c3 -5 8 -10 11 -10 2 0 4 5 4 10 0 6 -5 10 -11 10 -5 0
-7 -4 -4 -10z"/>
<path d="M5068 5483 c7 -3 16 -2 19 1 4 3 -2 6 -13 5 -11 0 -14 -3 -6 -6z"/>
<path d="M5058 5453 c7 -3 16 -2 19 1 4 3 -2 6 -13 5 -11 0 -14 -3 -6 -6z"/>
<path d="M3975 5440 c-3 -5 -1 -10 4 -10 6 0 11 5 11 10 0 6 -2 10 -4 10 -3 0
-8 -4 -11 -10z"/>
<path d="M4928 5423 c7 -3 16 -2 19 1 4 3 -2 6 -13 5 -11 0 -14 -3 -6 -6z"/>
<path d="M5067 5336 c-4 -10 -1 -13 8 -9 8 3 12 9 9 14 -7 12 -11 11 -17 -5z"/>
<path d="M5048 5303 c7 -3 16 -2 19 1 4 3 -2 6 -13 5 -11 0 -14 -3 -6 -6z"/>
<path d="M5201 5257 c2 -1 14 -11 27 -21 12 -11 22 -16 22 -13 0 10 -31 37
-42 37 -6 0 -9 -1 -7 -3z"/>
<path d="M5213 5215 c0 -8 4 -12 9 -9 5 3 6 10 3 15 -9 13 -12 11 -12 -6z"/>
<path d="M4489 5183 c-4 -95 -1 -1052 4 -1060 3 -5 21 -8 39 -6 27 3 29 1 13
-6 -16 -8 -17 -10 -3 -10 9 -1 19 3 23 9 3 5 25 8 48 7 23 0 48 2 55 6 6 5 12
6 12 2 0 -3 15 2 33 12 17 9 36 16 42 14 5 -1 7 0 3 4 -4 4 4 26 18 50 14 27
20 46 14 50 -15 9 -13 112 3 118 9 4 8 6 -2 6 -11 1 -11 4 0 18 10 11 10 14 2
9 -7 -4 -13 -3 -13 3 0 5 5 13 10 16 6 3 10 14 9 23 0 14 -2 13 -8 -3 -6 -13
-9 5 -10 53 -1 56 2 71 12 66 9 -6 9 -5 0 7 -6 8 -11 32 -11 54 0 22 5 46 11
54 7 8 7 12 2 9 -7 -4 -11 31 -12 100 -2 71 1 102 7 92 5 -8 10 -10 10 -5 0 6
-4 17 -10 25 -6 9 -5 17 3 22 9 6 9 8 0 8 -15 0 -17 36 -3 45 7 4 7 12 0 25
-7 13 -7 21 0 25 8 5 7 11 -1 21 -6 8 -9 27 -7 43 2 17 1 28 -3 26 -9 -6 -34
55 -32 75 2 10 0 10 -3 3 -6 -15 -34 -18 -34 -4 0 5 -49 9 -110 10 -100 2
-110 0 -111 -16z"/>
<path d="M4760 5189 c0 -5 5 -7 10 -4 6 3 10 8 10 11 0 2 -4 4 -10 4 -5 0 -10
-5 -10 -11z"/>
<path d="M4783 5152 c-8 -14 -8 -19 1 -19 7 0 13 9 13 19 1 10 1 18 0 18 -1 0
-7 -8 -14 -18z"/>
<path d="M5297 5087 c-3 -9 -2 -17 4 -17 6 0 7 -4 4 -10 -3 -5 -1 -10 4 -10
12 0 13 7 2 34 -7 18 -8 18 -14 3z"/>
<path d="M3970 5025 c0 -8 4 -15 10 -15 5 0 7 7 4 15 -4 8 -8 15 -10 15 -2 0
-4 -7 -4 -15z"/>
<path d="M3955 4989 c-11 -16 -2 -17 25 -2 24 12 24 13 3 13 -12 0 -25 -5 -28
-11z"/>
<path d="M5300 4976 c0 -2 7 -9 15 -16 9 -7 15 -8 15 -2 0 5 -7 12 -15 16 -8
3 -15 4 -15 2z"/>
<path d="M5291 4873 c0 -11 3 -13 6 -5 2 6 9 10 14 6 5 -3 9 0 9 5 0 6 -7 11
-15 11 -8 0 -15 -8 -14 -17z"/>
<path d="M3958 4573 c7 -3 16 -2 19 1 4 3 -2 6 -13 5 -11 0 -14 -3 -6 -6z"/>
<path d="M5282 4520 c0 -14 2 -19 5 -12 2 6 2 18 0 25 -3 6 -5 1 -5 -13z"/>
<path d="M5311 4494 c0 -11 3 -14 6 -6 3 7 2 16 -1 19 -3 4 -6 -2 -5 -13z"/>
<path d="M3978 4333 c7 -3 16 -2 19 1 4 3 -2 6 -13 5 -11 0 -14 -3 -6 -6z"/>
<path d="M5312 4275 c0 -16 2 -22 5 -12 2 9 2 23 0 30 -3 6 -5 -1 -5 -18z"/>
<path d="M4783 4199 c3 -9 1 -21 -5 -27 -6 -6 -5 -12 4 -17 7 -5 10 -5 6 0 -4
4 -4 13 2 19 5 7 5 17 -2 26 -8 13 -9 12 -5 -1z"/>
<path d="M4730 4133 c0 -17 19 -37 27 -29 4 5 2 11 -5 13 -6 3 -10 9 -6 14 3
5 0 9 -5 9 -6 0 -11 -3 -11 -7z"/>
<path d="M4700 4110 c8 -5 20 -10 25 -10 6 0 3 5 -5 10 -8 5 -19 10 -25 10 -5
0 -3 -5 5 -10z"/>
<path d="M4666 4098 c5 -8 1 -9 -12 -4 -14 5 -16 4 -8 -4 12 -12 47 -3 38 11
-3 5 -10 9 -15 9 -6 0 -7 -5 -3 -12z"/>
<path d="M5300 4032 c0 -15 -5 -33 -11 -39 -7 -7 -6 -12 5 -16 11 -4 13 -1 9
10 -4 9 -2 14 3 10 6 -3 8 8 6 29 -5 41 -12 45 -12 6z"/>
<path d="M5291 3944 c0 -11 3 -14 6 -6 3 7 2 16 -1 19 -3 4 -6 -2 -5 -13z"/>
<path d="M5211 3902 c-7 -13 -6 -19 2 -19 7 0 13 9 13 19 0 10 -1 18 -3 18 -1
0 -7 -8 -12 -18z"/>
<path d="M5245 3889 c-22 -42 -15 -44 12 -3 12 19 18 34 13 34 -5 0 -17 -14
-25 -31z"/>
<path d="M5160 3830 c-8 -5 -18 -6 -24 -3 -5 3 -6 1 -2 -5 3 -6 2 -13 -4 -17
-13 -8 -13 -25 1 -25 5 0 8 4 5 9 -8 12 20 34 33 27 5 -4 12 -2 15 3 9 14 -8
21 -24 11z"/>
<path d="M5206 3831 c-4 -5 -2 -12 3 -15 5 -4 12 -2 15 3 4 5 2 12 -3 15 -5 4
-12 2 -15 -3z"/>
<path d="M4120 3750 c0 -5 5 -10 10 -10 6 0 10 5 10 10 0 6 -4 10 -10 10 -5 0
-10 -4 -10 -10z"/>
<path d="M4982 3740 c-18 -4 -36 -10 -39 -13 -9 -10 71 5 82 14 11 10 4 10
-43 -1z"/>
<path d="M4535 3730 c-3 -5 -1 -10 4 -10 6 0 11 5 11 10 0 6 -2 10 -4 10 -3 0
-8 -4 -11 -10z"/>
<path d="M4768 3723 c7 -3 16 -2 19 1 4 3 -2 6 -13 5 -11 0 -14 -3 -6 -6z"/>
<path d="M6325 7070 c-3 -5 1 -10 9 -10 9 0 16 5 16 10 0 6 -4 10 -9 10 -6 0
-13 -4 -16 -10z"/>
<path d="M6490 7069 c0 -5 9 -9 20 -9 11 0 20 2 20 4 0 2 -9 6 -20 9 -11 3
-20 1 -20 -4z"/>
<path d="M5908 7063 c7 -3 16 -2 19 1 4 3 -2 6 -13 5 -11 0 -14 -3 -6 -6z"/>
<path d="M6188 7063 c7 -3 16 -2 19 1 4 3 -2 6 -13 5 -11 0 -14 -3 -6 -6z"/>
<path d="M6521 6744 c0 -11 3 -14 6 -6 3 7 2 16 -1 19 -3 4 -6 -2 -5 -13z"/>
<path d="M5471 6734 c0 -11 3 -14 6 -6 3 7 2 16 -1 19 -3 4 -6 -2 -5 -13z"/>
<path d="M6501 6735 c1 -19 18 -51 18 -35 0 8 -4 22 -9 30 -5 8 -9 11 -9 5z"/>
<path d="M6048 6713 c7 -3 16 -2 19 1 4 3 -2 6 -13 5 -11 0 -14 -3 -6 -6z"/>
<path d="M6476 6705 c4 -8 8 -15 10 -15 2 0 4 7 4 15 0 8 -4 15 -10 15 -5 0
-7 -7 -4 -15z"/>
<path d="M6531 6704 c0 -11 3 -14 6 -6 3 7 2 16 -1 19 -3 4 -6 -2 -5 -13z"/>
<path d="M6328 6693 c7 -3 16 -2 19 1 4 3 -2 6 -13 5 -11 0 -14 -3 -6 -6z"/>
<path d="M5480 6470 c0 -5 5 -10 11 -10 5 0 7 5 4 10 -3 6 -8 10 -11 10 -2 0
-4 -4 -4 -10z"/>
<path d="M5473 5870 c0 -30 2 -43 4 -27 2 15 2 39 0 55 -2 15 -4 2 -4 -28z"/>
<path d="M5470 5580 c0 -5 5 -10 10 -10 6 0 10 5 10 10 0 6 -4 10 -10 10 -5 0
-10 -4 -10 -10z"/>
<path d="M6123 5553 c9 -2 23 -2 30 0 6 3 -1 5 -18 5 -16 0 -22 -2 -12 -5z"/>
<path d="M6258 5553 c12 -2 32 -2 45 0 12 2 2 4 -23 4 -25 0 -35 -2 -22 -4z"/>
<path d="M6358 5543 c6 -2 18 -2 25 0 6 3 1 5 -13 5 -14 0 -19 -2 -12 -5z"/>
<path d="M5480 5469 c0 -5 5 -7 10 -4 6 3 10 8 10 11 0 2 -4 4 -10 4 -5 0 -10
-5 -10 -11z"/>
<path d="M6338 5243 c12 -2 32 -2 45 0 12 2 2 4 -23 4 -25 0 -35 -2 -22 -4z"/>
<path d="M6448 5243 c7 -3 16 -2 19 1 4 3 -2 6 -13 5 -11 0 -14 -3 -6 -6z"/>
<path d="M6508 5243 c7 -3 16 -2 19 1 4 3 -2 6 -13 5 -11 0 -14 -3 -6 -6z"/>
<path d="M6098 5223 c12 -2 32 -2 45 0 12 2 2 4 -23 4 -25 0 -35 -2 -22 -4z"/>
<path d="M5472 4690 c0 -14 2 -19 5 -12 2 6 2 18 0 25 -3 6 -5 1 -5 -13z"/>
<path d="M5471 4424 c0 -11 3 -14 6 -6 3 7 2 16 -1 19 -3 4 -6 -2 -5 -13z"/>
<path d="M5483 4240 c0 -47 2 -66 4 -42 2 23 2 61 0 85 -2 23 -4 4 -4 -43z"/>
<path d="M6011 4094 c0 -11 3 -14 6 -6 3 7 2 16 -1 19 -3 4 -6 -2 -5 -13z"/>
<path d="M6061 4094 c0 -11 3 -14 6 -6 3 7 2 16 -1 19 -3 4 -6 -2 -5 -13z"/>
<path d="M6168 4103 c7 -3 16 -2 19 1 4 3 -2 6 -13 5 -11 0 -14 -3 -6 -6z"/>
<path d="M6405 4090 c-3 -6 1 -7 9 -4 18 7 21 14 7 14 -6 0 -13 -4 -16 -10z"/>
<path d="M5410 3781 c0 -10 19 -25 25 -20 1 2 -3 10 -11 17 -8 7 -14 8 -14 3z"/>
<path d="M6514 3759 c-4 -7 -3 -9 4 -5 6 3 13 -2 15 -11 4 -16 5 -16 6 -1 1
21 -15 32 -25 17z"/>
<path d="M6491 3744 c0 -11 3 -14 6 -6 3 7 2 16 -1 19 -3 4 -6 -2 -5 -13z"/>
<path d="M6010 3740 c0 -5 5 -10 11 -10 5 0 7 5 4 10 -3 6 -8 10 -11 10 -2 0
-4 -4 -4 -10z"/>
<path d="M6075 3740 c3 -5 8 -10 11 -10 2 0 4 5 4 10 0 6 -5 10 -11 10 -5 0
-7 -4 -4 -10z"/>
<path d="M6230 3740 c-9 -6 -10 -10 -3 -10 6 0 15 5 18 10 8 12 4 12 -15 0z"/>
<path d="M5828 3733 c7 -3 16 -2 19 1 4 3 -2 6 -13 5 -11 0 -14 -3 -6 -6z"/>
<path d="M5668 3723 c7 -3 16 -2 19 1 4 3 -2 6 -13 5 -11 0 -14 -3 -6 -6z"/>
<path d="M7031 7071 c-9 -6 -5 -8 13 -8 15 0 29 3 32 8 7 11 -27 11 -45 0z"/>
<path d="M7535 7070 c-3 -5 -1 -10 4 -10 6 0 11 5 11 10 0 6 -2 10 -4 10 -3 0
-8 -4 -11 -10z"/>
<path d="M6785 7060 c4 -7 65 -1 65 6 0 3 -15 4 -34 2 -19 -1 -33 -5 -31 -8z"/>
<path d="M6900 7061 c0 -10 19 -25 25 -20 1 2 -3 10 -11 17 -8 7 -14 8 -14 3z"/>
<path d="M7116 7062 c-3 -5 8 -6 25 -4 16 2 29 6 29 8 0 8 -49 4 -54 -4z"/>
<path d="M7780 7050 c-8 -5 -10 -10 -5 -10 6 0 17 5 25 10 8 5 11 10 5 10 -5
0 -17 -5 -25 -10z"/>
<path d="M7955 6940 c3 -5 8 -10 11 -10 2 0 4 5 4 10 0 6 -5 10 -11 10 -5 0
-7 -4 -4 -10z"/>
<path d="M6690 6930 c0 -5 5 -10 11 -10 5 0 7 5 4 10 -3 6 -8 10 -11 10 -2 0
-4 -4 -4 -10z"/>
<path d="M7976 6921 c-4 -7 -5 -15 -2 -18 9 -9 19 4 14 18 -4 11 -6 11 -12 0z"/>
<path d="M7936 6905 c4 -8 11 -15 16 -15 6 0 5 6 -2 15 -7 8 -14 15 -16 15 -2
0 -1 -7 2 -15z"/>
<path d="M7981 6887 c2 -1 12 -9 22 -16 15 -12 17 -12 11 3 -3 9 -13 16 -22
16 -8 0 -13 -1 -11 -3z"/>
<path d="M8008 6825 c5 -11 7 -27 5 -35 -3 -10 0 -9 7 3 6 9 15 15 21 12 5 -4
6 2 2 11 -4 12 -8 14 -11 5 -3 -8 -8 -7 -19 6 -13 17 -14 17 -5 -2z"/>
<path d="M6691 6754 c0 -11 3 -14 6 -6 3 7 2 16 -1 19 -3 4 -6 -2 -5 -13z"/>
<path d="M8008 6383 c1 -208 3 -414 5 -458 2 -44 4 117 5 358 1 317 5 436 13
435 6 -2 14 4 16 12 4 12 3 12 -5 2 -13 -20 -26 -16 -32 8 -3 12 -4 -149 -2
-357z"/>
<path d="M7442 6705 c4 -4 1 -13 -5 -20 -14 -13 -77 -8 -77 6 0 5 -5 9 -11 9
-5 0 -7 -4 -4 -10 4 -6 -16 -9 -53 -7 -38 2 -63 -2 -71 -10 -7 -8 -8 -13 -1
-13 5 0 10 -7 10 -16 0 -9 -5 -12 -12 -8 -10 6 -10 4 0 -7 6 -7 12 -24 12 -38
0 -21 -2 -23 -11 -11 -9 12 -9 11 -4 -5 16 -45 17 -56 4 -72 -8 -10 -9 -14 -2
-10 15 9 14 -35 -2 -45 -6 -5 -6 -8 3 -8 6 0 12 -12 12 -26 0 -19 -4 -25 -14
-21 -10 4 -13 1 -9 -8 3 -8 9 -13 13 -10 4 3 8 -11 8 -31 0 -26 -4 -34 -13
-30 -9 3 -12 0 -8 -9 3 -8 9 -13 13 -10 10 6 7 -46 -3 -62 -5 -8 -4 -13 2 -13
14 0 13 -131 -1 -147 -6 -8 -7 -13 -1 -13 6 0 9 -93 9 -235 -1 -150 3 -235 9
-236 6 -1 19 0 30 1 l20 2 -20 -16 c-11 -8 -15 -16 -9 -16 6 0 17 6 23 14 14
16 86 19 114 5 11 -6 17 -6 17 1 0 14 64 39 71 27 4 -5 9 3 13 17 4 15 11 24
16 21 5 -3 9 192 9 474 1 310 -3 482 -9 486 -5 3 -10 15 -10 26 0 13 4 18 12
13 7 -5 8 -3 3 6 -6 10 -11 10 -20 -3 -11 -15 -14 -14 -33 6 -16 17 -19 26
-11 34 8 8 7 13 -3 18 -7 5 -10 5 -6 0z"/>
<path d="M7495 6700 c-3 -5 -2 -10 4 -10 5 0 13 5 16 10 3 6 2 10 -4 10 -5 0
-13 -4 -16 -10z"/>
<path d="M6701 6684 c0 -11 3 -14 6 -6 3 7 2 16 -1 19 -3 4 -6 -2 -5 -13z"/>
<path d="M7388 6693 c6 -2 18 -2 25 0 6 3 1 5 -13 5 -14 0 -19 -2 -12 -5z"/>
<path d="M7477 6679 c7 -7 15 -10 18 -7 3 3 -2 9 -12 12 -14 6 -15 5 -6 -5z"/>
<path d="M6695 6639 c-4 -6 -5 -12 -2 -15 2 -3 7 2 10 11 7 17 1 20 -8 4z"/>
<path d="M8052 6620 c0 -14 2 -19 5 -12 2 6 2 18 0 25 -3 6 -5 1 -5 -13z"/>
<path d="M8053 6520 c0 -25 2 -35 4 -22 2 12 2 32 0 45 -2 12 -4 2 -4 -23z"/>
<path d="M7200 6420 c0 -5 5 -10 11 -10 5 0 7 5 4 10 -3 6 -8 10 -11 10 -2 0
-4 -4 -4 -10z"/>
<path d="M6690 6306 c0 -2 7 -7 16 -10 8 -3 12 -2 9 4 -6 10 -25 14 -25 6z"/>
<path d="M7205 6250 c3 -5 8 -10 11 -10 2 0 4 5 4 10 0 6 -5 10 -11 10 -5 0
-7 -4 -4 -10z"/>
<path d="M8053 6200 c0 -25 2 -35 4 -22 2 12 2 32 0 45 -2 12 -4 2 -4 -23z"/>
<path d="M6690 6140 c0 -6 7 -10 15 -10 8 0 15 2 15 4 0 2 -7 6 -15 10 -8 3
-15 1 -15 -4z"/>
<path d="M6690 6110 c0 -5 5 -10 11 -10 5 0 7 5 4 10 -3 6 -8 10 -11 10 -2 0
-4 -4 -4 -10z"/>
<path d="M8053 6040 c0 -25 2 -35 4 -22 2 12 2 32 0 45 -2 12 -4 2 -4 -23z"/>
<path d="M6691 6039 c-1 -16 4 -26 14 -26 9 0 11 4 6 11 -4 6 -11 18 -14 26
-3 9 -6 5 -6 -11z"/>
<path d="M6695 5910 c-3 -5 0 -18 7 -30 10 -15 10 -24 1 -39 -7 -10 -9 -22 -6
-25 15 -14 19 -3 17 37 -5 69 -7 76 -19 57z"/>
<path d="M8053 5880 c0 -25 2 -35 4 -22 2 12 2 32 0 45 -2 12 -4 2 -4 -23z"/>
<path d="M8027 5743 c3 -7 6 -13 8 -13 2 0 5 6 8 13 3 8 -1 14 -8 14 -7 0 -11
-6 -8 -14z"/>
<path d="M8011 5724 c0 -11 3 -14 6 -6 3 7 2 16 -1 19 -3 4 -6 -2 -5 -13z"/>
<path d="M8040 5709 c0 -5 5 -7 10 -4 6 3 10 8 10 11 0 2 -4 4 -10 4 -5 0 -10
-5 -10 -11z"/>
<path d="M8016 5692 c-7 -11 6 -26 24 -30 12 -2 11 1 -2 11 -10 8 -15 17 -11
20 3 4 4 7 0 7 -3 0 -8 -4 -11 -8z"/>
<path d="M7971 5593 c-1 -6 3 -14 9 -18 5 -3 2 -13 -8 -23 -9 -10 -20 -14 -23
-9 -4 5 -10 0 -13 -11 -5 -14 -12 -19 -24 -15 -14 5 -15 4 -4 -8 11 -12 15
-11 26 3 7 10 15 15 18 13 7 -7 42 33 44 51 1 8 -1 12 -6 9 -5 -3 -11 1 -13 7
-4 9 -6 10 -6 1z"/>
<path d="M7270 5540 c-8 -5 -12 -12 -9 -15 4 -3 12 1 19 10 14 17 11 19 -10 5z"/>
<path d="M7368 5533 c7 -3 16 -2 19 1 4 3 -2 6 -13 5 -11 0 -14 -3 -6 -6z"/>
<path d="M7849 5508 c-5 -18 -6 -38 -1 -34 7 8 12 36 6 36 -2 0 -4 -1 -5 -2z"/>
<path d="M7870 5500 c0 -5 5 -10 10 -10 6 0 10 5 10 10 0 6 -4 10 -10 10 -5 0
-10 -4 -10 -10z"/>
<path d="M7548 5423 c7 -3 16 -2 19 1 4 3 -2 6 -13 5 -11 0 -14 -3 -6 -6z"/>
<path d="M7781 5314 c0 -11 3 -14 6 -6 3 7 2 16 -1 19 -3 4 -6 -2 -5 -13z"/>
<path d="M7848 5323 c7 -3 16 -2 19 1 4 3 -2 6 -13 5 -11 0 -14 -3 -6 -6z"/>
<path d="M7897 5309 c7 -7 15 -10 18 -7 3 3 -2 9 -12 12 -14 6 -15 5 -6 -5z"/>
<path d="M7818 5303 c7 -3 16 -2 19 1 4 3 -2 6 -13 5 -11 0 -14 -3 -6 -6z"/>
<path d="M7276 5242 c-2 -4 12 -6 32 -4 56 5 62 10 15 11 -23 1 -44 -3 -47 -7z"/>
<path d="M7215 5230 c4 -6 11 -8 16 -5 14 9 11 15 -7 15 -8 0 -12 -5 -9 -10z"/>
<path d="M7920 5231 c0 -10 30 -24 37 -17 3 2 -5 9 -16 16 -12 6 -21 7 -21 1z"/>
<path d="M7990 5226 c0 -2 7 -7 16 -10 8 -3 12 -2 9 4 -6 10 -25 14 -25 6z"/>
<path d="M7496 5188 c3 -5 10 -6 15 -3 13 9 11 12 -6 12 -8 0 -12 -4 -9 -9z"/>
<path d="M8053 5000 c0 -25 2 -35 4 -22 2 12 2 32 0 45 -2 12 -4 2 -4 -23z"/>
<path d="M8013 4955 c0 -44 2 -61 4 -37 2 23 2 59 0 80 -2 20 -4 1 -4 -43z"/>
<path d="M7203 4971 c0 -11 5 -18 9 -15 4 3 5 11 1 19 -7 21 -12 19 -10 -4z"/>
<path d="M8009 4853 c-2 -10 -2 -81 2 -158 l5 -140 2 158 c2 147 0 182 -9 140z"/>
<path d="M6700 4656 c0 -8 -2 -20 -3 -28 -2 -7 -2 -10 0 -5 3 4 8 5 12 2 5 -2
6 7 3 20 -5 27 -12 33 -12 11z"/>
<path d="M8007 4543 c-10 -16 -7 -143 3 -143 6 0 10 32 10 75 0 71 -3 85 -13
68z"/>
<path d="M7211 4514 c0 -11 3 -14 6 -6 3 7 2 16 -1 19 -3 4 -6 -2 -5 -13z"/>
<path d="M8053 4440 c0 -25 2 -35 4 -22 2 12 2 32 0 45 -2 12 -4 2 -4 -23z"/>
<path d="M6698 4343 c7 -3 16 -2 19 1 4 3 -2 6 -13 5 -11 0 -14 -3 -6 -6z"/>
<path d="M6690 4320 c0 -5 5 -10 11 -10 5 0 7 5 4 10 -3 6 -8 10 -11 10 -2 0
-4 -4 -4 -10z"/>
<path d="M8014 4205 c0 -66 1 -92 3 -57 2 34 2 88 0 120 -2 31 -3 3 -3 -63z"/>
<path d="M8053 4255 c0 -38 2 -53 4 -32 2 20 2 52 0 70 -2 17 -4 1 -4 -38z"/>
<path d="M6697 4265 c-4 -8 -2 -17 2 -20 5 -2 11 4 14 15 6 23 -8 27 -16 5z"/>
<path d="M6690 4189 c0 -5 5 -7 10 -4 6 3 10 8 10 11 0 2 -4 4 -10 4 -5 0 -10
-5 -10 -11z"/>
<path d="M6690 3966 c0 -2 7 -7 16 -10 8 -3 12 -2 9 4 -6 10 -25 14 -25 6z"/>
<path d="M7551 3904 c0 -11 3 -14 6 -6 3 7 2 16 -1 19 -3 4 -6 -2 -5 -13z"/>
<path d="M7578 3883 c7 -3 16 -2 19 1 4 3 -2 6 -13 5 -11 0 -14 -3 -6 -6z"/>
<path d="M7555 3800 c3 -5 8 -10 11 -10 2 0 4 5 4 10 0 6 -5 10 -11 10 -5 0
-7 -4 -4 -10z"/>
<path d="M8087 3756 c-3 -8 0 -17 7 -19 10 -4 12 1 9 14 -6 23 -9 24 -16 5z"/>
<path d="M6870 3730 c-13 -8 -12 -10 3 -10 9 0 17 5 17 10 0 12 -1 12 -20 0z"/>
<path d="M7858 3723 c6 -2 18 -2 25 0 6 3 1 5 -13 5 -14 0 -19 -2 -12 -5z"/>
<path d="M8658 7073 c6 -2 18 -2 25 0 6 3 1 5 -13 5 -14 0 -19 -2 -12 -5z"/>
<path d="M9125 7070 c-3 -6 1 -7 9 -4 18 7 21 14 7 14 -6 0 -13 -4 -16 -10z"/>
<path d="M9211 7056 c-10 -12 -8 -13 8 -9 12 3 18 9 15 14 -7 12 -10 11 -23
-5z"/>
<path d="M8518 7053 c7 -3 16 -2 19 1 4 3 -2 6 -13 5 -11 0 -14 -3 -6 -6z"/>
<path d="M8590 7056 c0 -2 9 -6 20 -9 11 -3 18 -1 14 4 -5 9 -34 13 -34 5z"/>
<path d="M8658 7053 c6 -2 18 -2 25 0 6 3 1 5 -13 5 -14 0 -19 -2 -12 -5z"/>
<path d="M9415 7010 c3 -5 8 -10 11 -10 2 0 4 5 4 10 0 6 -5 10 -11 10 -5 0
-7 -4 -4 -10z"/>
<path d="M9360 6992 c0 -4 10 -13 23 -21 22 -14 22 -14 3 8 -20 22 -26 25 -26
13z"/>
<path d="M9435 6991 c-3 -7 0 -8 10 -5 11 5 14 2 9 -10 -3 -9 -2 -16 4 -16 13
0 8 33 -5 37 -6 2 -14 -1 -18 -6z"/>
<path d="M8305 6966 c-9 -14 -13 -31 -8 -42 6 -17 5 -18 -12 -4 -17 14 -17 14
-4 -7 l14 -23 13 25 c7 14 10 30 7 36 -4 5 -1 16 5 24 7 8 10 15 6 15 -3 0
-12 -11 -21 -24z"/>
<path d="M8357 6979 c7 -7 15 -10 18 -7 3 3 -2 9 -12 12 -14 6 -15 5 -6 -5z"/>
<path d="M8265 6890 c-3 -5 -1 -10 4 -10 6 0 11 5 11 10 0 6 -2 10 -4 10 -3 0
-8 -4 -11 -10z"/>
<path d="M9528 6822 c-3 -11 0 -19 7 -19 7 0 10 8 7 19 -2 10 -6 18 -7 18 -1
0 -5 -8 -7 -18z"/>
<path d="M8225 6811 c-3 -5 -2 -12 3 -15 5 -3 9 1 9 9 0 17 -3 19 -12 6z"/>
<path d="M8840 6710 c0 -5 5 -10 10 -10 6 0 10 5 10 10 0 6 -4 10 -10 10 -5 0
-10 -4 -10 -10z"/>
<path d="M9014 6706 c-17 -13 -17 -15 -2 -21 22 -9 12 -36 -10 -28 -9 4 -14 3
-11 -1 4 -4 15 -8 26 -10 15 -3 19 1 18 17 -1 11 -7 23 -14 25 -8 3 -6 8 6 18
10 7 15 14 12 14 -3 0 -14 -6 -25 -14z"/>
<path d="M9553 6670 c0 -30 2 -43 4 -27 2 15 2 39 0 55 -2 15 -4 2 -4 -28z"/>
<path d="M8870 6695 c-11 -13 -10 -14 4 -9 9 3 16 10 16 15 0 13 -6 11 -20 -6z"/>
<path d="M8911 6694 c-1 -12 -62 -29 -96 -27 -11 1 -14 -1 -7 -4 10 -4 9 -9
-4 -24 -9 -10 -22 -15 -28 -12 -6 4 -17 8 -24 9 -10 2 -10 -1 -1 -12 6 -7 15
-11 20 -8 11 7 11 4 -2 -34 -6 -17 -18 -33 -27 -35 -15 -4 -15 -5 1 -6 26 -2
22 -39 -5 -44 l-23 -4 23 -2 c19 -1 22 -7 22 -42 0 -24 -4 -38 -10 -34 -5 3
-10 -1 -10 -10 0 -9 4 -14 9 -11 5 3 8 -52 8 -124 -1 -72 -5 -130 -9 -130 -4
0 -8 -5 -8 -11 0 -5 4 -8 9 -5 5 3 9 -39 10 -94 1 -70 -2 -100 -10 -100 -8 0
-8 -4 -2 -12 14 -18 17 -508 3 -508 -5 0 -10 -7 -10 -16 0 -8 5 -12 10 -9 6 3
10 -1 10 -9 0 -9 -6 -16 -12 -16 -9 0 -8 -3 2 -10 12 -7 12 -12 2 -22 -6 -6
-12 -17 -12 -23 0 -5 5 -3 10 5 6 10 9 -25 9 -105 -1 -77 -5 -123 -13 -127 -8
-6 -7 -8 2 -8 17 0 18 -370 0 -388 -9 -9 -9 -12 0 -12 8 0 12 -20 12 -61 0
-45 -3 -58 -12 -53 -10 6 -10 5 0 -8 9 -11 11 -55 9 -167 -4 -134 -6 -153 -23
-166 -13 -11 -15 -15 -4 -13 8 2 18 7 21 11 8 11 60 -58 57 -75 -2 -9 6 -12
25 -10 16 2 26 -1 24 -5 -3 -5 19 -8 48 -8 44 1 58 6 73 25 18 22 22 23 38 10
12 -8 14 -9 8 -1 -7 7 -9 22 -6 33 4 15 7 17 13 6 5 -7 8 538 6 1212 -1 854
-5 1225 -13 1225 -5 0 -25 12 -43 28 -18 15 -27 27 -19 27 10 0 9 3 -2 10 -20
13 -33 13 -25 0 3 -5 2 -10 -4 -10 -5 0 -12 6 -14 13 -4 8 -6 8 -6 1z"/>
<path d="M8212 6600 c0 -14 2 -19 5 -12 2 6 2 18 0 25 -3 6 -5 1 -5 -13z"/>
<path d="M8724 6609 c-5 -8 -3 -9 6 -4 10 6 12 4 7 -8 -3 -9 -2 -19 3 -22 6
-4 10 3 10 14 0 24 -16 36 -26 20z"/>
<path d="M9573 6520 c0 -25 2 -35 4 -22 2 12 2 32 0 45 -2 12 -4 2 -4 -23z"/>
<path d="M8210 6424 c0 -8 5 -12 10 -9 6 4 8 11 5 16 -9 14 -15 11 -15 -7z"/>
<path d="M9572 6375 c0 -16 2 -22 5 -12 2 9 2 23 0 30 -3 6 -5 -1 -5 -18z"/>
<path d="M8720 6356 c0 -2 8 -10 18 -17 15 -13 16 -12 3 4 -13 16 -21 21 -21
13z"/>
<path d="M8211 6324 c0 -11 3 -14 6 -6 3 7 2 16 -1 19 -3 4 -6 -2 -5 -13z"/>
<path d="M8740 6270 c-8 -26 -7 -41 2 -32 6 6 8 16 5 24 -3 7 -6 11 -7 8z"/>
<path d="M8210 6205 c0 -8 2 -15 4 -15 2 0 6 7 10 15 3 8 1 15 -4 15 -6 0 -10
-7 -10 -15z"/>
<path d="M9572 6135 c0 -16 2 -22 5 -12 2 9 2 23 0 30 -3 6 -5 -1 -5 -18z"/>
<path d="M8215 6139 c-4 -6 -5 -12 -2 -15 2 -3 7 2 10 11 7 17 1 20 -8 4z"/>
<path d="M8741 6004 c0 -11 3 -14 6 -6 3 7 2 16 -1 19 -3 4 -6 -2 -5 -13z"/>
<path d="M9574 5840 c0 -91 2 -128 3 -82 2 45 2 119 0 165 -1 45 -3 8 -3 -83z"/>
<path d="M8211 5894 c0 -11 3 -14 6 -6 3 7 2 16 -1 19 -3 4 -6 -2 -5 -13z"/>
<path d="M8730 5900 c0 -5 5 -10 11 -10 5 0 7 5 4 10 -3 6 -8 10 -11 10 -2 0
-4 -4 -4 -10z"/>
<path d="M8221 5596 c-10 -18 -11 -28 -2 -42 11 -17 11 -17 6 4 -4 13 -1 30 6
38 6 8 10 17 7 19 -3 3 -10 -6 -17 -19z"/>
<path d="M9572 5455 c-1 -44 -5 -91 -7 -105 l-6 -25 11 24 c6 14 9 61 7 105
l-3 81 -2 -80z"/>
<path d="M8220 5355 c-7 -9 -8 -15 -2 -15 5 0 12 7 16 15 3 8 4 15 2 15 -2 0
-9 -7 -16 -15z"/>
<path d="M9573 4960 c0 -47 2 -66 4 -42 2 23 2 61 0 85 -2 23 -4 4 -4 -43z"/>
<path d="M8218 5003 c7 -3 16 -2 19 1 4 3 -2 6 -13 5 -11 0 -14 -3 -6 -6z"/>
<path d="M8210 4780 c0 -5 5 -10 10 -10 6 0 10 5 10 10 0 6 -4 10 -10 10 -5 0
-10 -4 -10 -10z"/>
<path d="M9572 4695 c0 -16 2 -22 5 -12 2 9 2 23 0 30 -3 6 -5 -1 -5 -18z"/>
<path d="M8212 4345 c0 -16 2 -22 5 -12 2 9 2 23 0 30 -3 6 -5 -1 -5 -18z"/>
<path d="M9573 4165 c0 -44 2 -61 4 -37 2 23 2 59 0 80 -2 20 -4 1 -4 -43z"/>
<path d="M8214 4170 c0 -13 4 -16 10 -10 7 7 7 13 0 20 -6 6 -10 3 -10 -10z"/>
<path d="M8750 4181 c0 -10 19 -25 25 -20 1 2 -3 10 -11 17 -8 7 -14 8 -14 3z"/>
<path d="M8985 4120 c-3 -6 1 -7 9 -4 18 7 21 14 7 14 -6 0 -13 -4 -16 -10z"/>
<path d="M8908 4103 c6 -2 18 -2 25 0 6 3 1 5 -13 5 -14 0 -19 -2 -12 -5z"/>
<path d="M8840 4089 c0 -5 5 -7 10 -4 6 3 10 8 10 11 0 2 -4 4 -10 4 -5 0 -10
-5 -10 -11z"/>
<path d="M8940 4090 c-8 -5 -10 -10 -5 -10 6 0 17 5 25 10 8 5 11 10 5 10 -5
0 -17 -5 -25 -10z"/>
<path d="M9528 4053 c7 -3 16 -2 19 1 4 3 -2 6 -13 5 -11 0 -14 -3 -6 -6z"/>
<path d="M9548 3999 c-23 -13 -23 -25 0 -25 10 0 18 8 18 18 0 10 0 18 -1 18
0 0 -8 -5 -17 -11z"/>
<path d="M9545 3949 c-4 -6 -5 -12 -2 -15 2 -3 7 2 10 11 7 17 1 20 -8 4z"/>
<path d="M9521 3904 c0 -11 3 -14 6 -6 3 7 2 16 -1 19 -3 4 -6 -2 -5 -13z"/>
<path d="M8322 3831 c-11 -6 -10 -10 0 -19 11 -8 14 -7 14 9 0 10 0 19 -1 19
0 0 -6 -4 -13 -9z"/>
<path d="M8351 3824 c0 -11 3 -14 6 -6 3 7 2 16 -1 19 -3 4 -6 -2 -5 -13z"/>
<path d="M9423 3833 c4 -6 3 -14 -3 -18 -5 -3 -10 -1 -10 4 0 6 -5 11 -11 11
-8 0 -8 -4 -1 -13 11 -13 45 -15 75 -2 24 10 21 21 -5 22 -13 0 -17 -1 -10 -4
6 -3 9 -9 6 -15 -3 -5 -15 -2 -27 9 -11 10 -17 13 -14 6z"/>
<path d="M9385 3789 c-4 -6 -5 -12 -2 -15 2 -3 7 2 10 11 7 17 1 20 -8 4z"/>
<path d="M8840 3733 c0 -11 3 -14 8 -7 4 6 14 14 22 17 10 4 8 6 -7 6 -16 1
-23 -5 -23 -16z"/>
<path d="M8615 3730 c4 -6 11 -8 16 -5 14 9 11 15 -7 15 -8 0 -12 -5 -9 -10z"/>
</g>
</svg>
